<svg width="172" height="141" viewBox="0 0 172 141" xmlns="http://www.w3.org/2000/svg"><path d="M109.81 140.9l-.076-.015-.126-.025c-.067-.01-.13-.032-.195-.057-5.825-2.327-56.694-31.01-67.89-37.428l-1.197-.69-2.385 1.042c-6.897 2.5-13.642 1.413-19.56-1.273-6.514-2.952-11.34-9.448-13.938-15.88C.564 76.983-.5 65.315 2.908 55.437 5.612 47.62 9.22 41.584 17.643 36.202l3.536-2.052.39-.994c1.577-4.118 5.968-15.112 16.685-22.622C48.95 3.03 59.757.204 71.255.427c9.807.188 19.215 3.09 27.822 9.704 6.44 4.948 10.735 8.76 16.645 17.936 1.298 2.025 5.1 7.245 6.742 8.855.424.418 1.277.99 2.18 1.677l1.276 1.207.812-1.415c2.793-4.666 8.84-13.324 12.485-7.747 2.92 4.473 6.492 14.567 8.453 20.74l.433 1.41-.066-.213c.066.094.122.204.156.318.032.11.064.222.103.337l.75.256c4.87 1.89 19.317 8.423 20.71 9.465l.104.094.087.08c.106.104.19.226.248.363 1.365 3.177.96 12.902.585 21.77-.438 10.36-.73 17.628.147 19.044.22.362.218.817-.01 1.177-1.46 2.306-9.37 8.447-12.64 10.47-4.938 3.057-43.43 25.605-48.468 24.945zm47.295-26.836c2.89-1.785 8.97-6.528 11.223-8.91l.4-.485-.127-.352c-.82-3.406-.368-11.51-.042-19.15.33-7.846.598-15.46.01-19.178-.36.135-1.09.47-2.104.984-1.064.54-2.358 1.226-3.656 1.943-1.293.717-2.58 1.46-3.644 2.114-.486.3-.908.57-1.252.805 2.676 3.018 3.768 6.903 3.35 10.217-.51 4.024-3.34 7.33-8.19 6.935-4.38-.355-8.188-5.373-8.964-8.367l-.018-.16-1.117.687c-2.036 1.234-4.446 2.63-5.845 3.66.126.174.245.346.367.53 4.545 6.987 2.463 14.767-2.963 16.52-5.01 1.614-8.45-.12-10.82-4.91-.44-.895-1.026-1.678-1.63-2.33-.166.116-.368.183-.586.187-.456.014-1.2.264-2.227.788-.987.502-2.078 1.173-3.195 1.86-1.094.675-2.222 1.372-3.215 1.885-.613.314-1.317.64-2.003.783-.084.687-.16 1.512-.224 2.46-.094 1.388-.16 3.01-.202 4.796-.084 3.566-.073 7.757.024 11.942.09 4.186.264 8.35.495 11.877.11 1.76.242 3.358.382 4.71.103.986.207 1.824.32 2.507 8.026-2.538 39.38-20.588 45.453-24.348zm-47.674 24.304l-.043-.018c-.094-.653-.183-1.397-.268-2.215-.145-1.388-.278-3.018-.395-4.798-.232-3.56-.406-7.762-.496-11.97-.097-4.21-.11-8.434-.02-12.048.04-1.804.106-3.462.2-4.89.065-.952.145-1.813.237-2.553-.43-.146-.918-.334-1.43-.536-1.166-.464-2.65-1.11-4.34-1.872-3.378-1.535-7.614-3.57-11.816-5.662-4.193-2.098-8.367-4.255-11.62-6.03-1.627-.887-3.035-1.684-4.104-2.334-.66-.394-1.27-.786-1.718-1.127-1.135.957-2.2 1.452-3.275 1.475-1.536.034-2.667-.918-3.51-1.713-1.872-1.77-3.012-3.305-5.583-2.407-6.286 2.192-7.964 6.328-9.703 10.84-1.57 4.077-3.2 8.51-8.552 11.145 11.077 6.344 55.125 31.175 65.54 36.3l.896.413zm-69.537-37.914c.144-.07.298-.112.458-.1 5.865-2.09 7.377-6.116 9.12-10.64 1.763-4.586 3.75-9.598 11.05-12.142 4.106-1.434 6.35 1.48 7.84 2.89.846.795 1.385 1.118 1.933 1.106.56-.01 1.532-.39 3.128-2.18 4.52-5.055-4.38-13.55-12.12-13.65-7.652-.1-11.026 4.3-13.876 9.763-2.768 5.3-5.133 12.092-10.848 14.886-7.946 3.887-13.96.848-17.706-4.645-3.663-5.37-5.25-13.138-4.805-19.258.367-5.018 2.192-11.227 5.56-14.113.093-.08.2-.143.25-.16.125-.052.194-.072.458-.107.04-.022.284.007.445.087.098.046.14.07.178.094 8.01 5.206 21.526 10.142 28.736 15.54.066.053.126.11.18.172 2.652-2.716 6.19-4.55 11.46-4.48 4.588.06 9.447 2.595 12.47 5.893 2.954 3.222 4.51 7.676 1.406 11.313.298.204.717.48 1.282.823 1.027.622 2.403 1.4 4.015 2.278 3.225 1.76 7.37 3.903 11.554 5.994 4.182 2.082 8.393 4.107 11.736 5.625 1.677.76 3.124 1.386 4.245 1.832 1.21.48 1.86.674 2.03.692l.093.005c.162.016.653-.085 1.678-.614.903-.46 1.944-1.106 3.067-1.798 1.496-.923 3.445-2.164 5.133-2.707-.298-.204-.6-.367-.924-.497-.57-.227-.85-.877-.62-1.445.228-.565.874-.844 1.448-.618.53.21 1.03.486 1.474.81 1.1.74 3.1 2.45 4.29 4.86 1.927 3.9 4.296 5.017 8.14 3.78 3.458-1.118 5.892-6.878 1.782-13.194-2.562-3.933-7.226-4.375-12.14-2.976-4.902 1.4-9.475 4.5-11.197 6.773-1.114 1.47-1.374 1.88-2.477 3.2-.392.47-1.096.533-1.564.14-.472-.392-.536-1.093-.144-1.565 1.055-1.264 1.254-1.594 2.412-3.115 2.087-2.753 7.12-6.078 12.36-7.572 4.363-1.24 9.273-1.305 12.74 1.727.017-.014.035-.027.054-.04 2.44-1.842 7.336-4.417 8.92-5.688.748-.6 1.858-.032 1.81.925l-.096 1.846.103.335c.89 2.448 3.932 5.998 6.84 6.234 3.45.277 5.412-1.894 5.806-4.997.4-3.177-.933-7.167-4.224-9.828-5.162-4.17-16.41-.6-17.388 5.77-.094.6-.66 1.018-1.27.927-.606-.094-1.023-.662-.932-1.27 1.005-6.515 9.504-10.374 16.164-9.23-.01-2.024-.9-4.47-2.08-7.097-.984-2.19-2.105-4.365-2.832-6.248-.1-.12-.175-.255-.22-.41-1.682-5.614-5.79-17.737-8.922-22.53-2.116-3.242-7.843 5.99-10.16 10.258-.09.162-.21.288-.25.258-.082.13-.217.21-.387.268-.117.04-.263.06-.41.028-.016.023-.04.023-.067.018-4.288-.52-8.382.103-12.556 1.058-3.836.875-9.39 3.79-11.154 4.29-.528.15-1.085-.105-1.317-.605-1.868-4.056-8.058-11.5-10.938-9.836-.665.384-1.523 1.937-2.32 4.86-.76 2.764-1.363 6.332-1.836 10.143-.938 7.607-1.318 16.01-1.318 20.423 0 .612-.502 1.11-1.117 1.11-.61 0-1.11-.498-1.11-1.11 0-4.5.386-12.99 1.336-20.695.844-6.802 2.265-14.926 5.254-16.655 4.673-2.7 10.804 5.15 13.262 9.317l.337.593.894-.38c2.412-1.054 6.54-2.937 9.533-3.624 3.282-.747 6.637-1.33 10.14-1.3-.646-.425-1.366-.892-2.26-1.777-1.833-1.79-5.747-7.193-7.06-9.236-5.735-8.907-9.837-12.54-16.126-17.377-8.204-6.303-17.144-9.06-26.51-9.242-11.05-.21-21.39 2.488-31.678 9.705-10.08 7.07-14.24 17.35-15.863 21.545.167.272.215.613.11.94-.46 1.343-.757 2.73-.975 4.162-.218 1.437-.353 2.902-.482 4.407-.052.614-.598 1.067-1.208 1.012-.61-.056-1.062-.596-1.01-1.205.182-2.098.38-4.265.835-6.41-9.476 5.41-13.154 11.332-15.924 19.357-3.202 9.276-2.23 20.38 1.49 29.582 2.47 6.113 6.98 12.047 12.797 14.685 6.316 2.87 13.42 3.705 20.59.024zM93.29 89.502c-.36-.497-.247-1.195.248-1.553 1.365-.986 3.243-2.144 5.185-3.067 1.906-.903 4.016-1.65 5.807-1.668.612-.007 1.117.486 1.122 1.102.01.61-.487 1.117-1.1 1.122-1.285.013-3.033.574-4.877 1.45-1.807.855-3.564 1.946-4.827 2.86-.5.36-1.195.247-1.557-.248zM35.6 88.39c6.228-3.05 7.934-12.403 12.833-18.73-.025-.017-.05-.036-.076-.056-6.786-5.08-19.57-9.803-27.868-14.984-2.34 2.536-3.877 7.53-4.203 12.027-.417 5.717 1.094 12.96 4.422 17.844 3.246 4.758 8.12 7.21 14.89 3.9zm53.666-4.114c-.328-.518-.175-1.205.344-1.535 1.605-1.016 3.83-1.856 6.04-2.47 2.225-.616 4.532-1.03 6.34-1.145.616-.037 1.146.426 1.185 1.037.04.612-.427 1.143-1.04 1.184-1.627.1-3.78.48-5.888 1.065-2.122.59-4.108 1.362-5.447 2.207-.516.332-1.204.176-1.534-.34zm15.74-12.39c0-2.076 1.434-3.764 3.205-3.764 1.767 0 3.2 1.688 3.2 3.765 0 2.082-1.433 3.768-3.2 3.768-1.77 0-3.203-1.686-3.203-3.768zm56.727-4.914c1.314-.726 2.63-1.427 3.73-1.98.69-.35 1.327-.66 1.83-.88l.013.006-.115-.064c-3.513-1.782-13.213-6.156-17.75-8.025.594 1.298 1.282 2.7 1.915 4.108.21.474.427.957.63 1.45.11-.04.246-.097.407-.168.16-.07.337-.155.525-.247.188-.094.38-.192.585-.29.397-.2.832-.415 1.236-.585.378-.162.842-.334 1.28-.38.612-.062 1.158.385 1.222.994.064.61-.383 1.154-.995 1.218-.025.003-.092.014-.216.053-.115.037-.258.092-.423.158-.33.14-.697.324-1.107.528-.2.098-.404.2-.6.3-.203.096-.403.192-.6.28-.174.082-.355.155-.532.22.193.574.362 1.15.5 1.722.032-.007.07-.014.122-.028.142-.034.318-.09.53-.167.414-.154.894-.367 1.437-.607.503-.224 1.062-.474 1.567-.664.254-.094.513-.18.766-.243.243-.06.525-.11.844-.107.616.02 1.098.534 1.08 1.146-.02.612-.53 1.093-1.147 1.075-.01 0-.08.002-.236.04-.14.038-.318.095-.527.173-.42.156-.894.366-1.44.607-.504.227-1.066.476-1.573.664-.255.093-.516.18-.768.242-.1.023-.2.046-.308.064.023.325.028.644.014.962-.004.066-.014.126-.025.188.958.366 1.848.856 2.628 1.486l.047.04c1.353-.963 3.66-2.296 5.456-3.29zm-28.784-2.276c0-2.098 1.45-3.802 3.23-3.802 1.782 0 3.232 1.704 3.232 3.802s-1.45 3.802-3.232 3.802c-1.78 0-3.23-1.704-3.23-3.802z" fill="#95A5A6" fill-rule="evenodd"/></svg>