<svg width="169" height="172" viewBox="0 0 169 172" xmlns="http://www.w3.org/2000/svg"><path d="M48.96 159.606l-.65-.667c-.177-.08-.34-.195-.475-.35-.254-.287-.495-.583-.722-.888l.452.468-.068-.073-1.814 1.653c-1.01.795-2.07 1.51-3.17 2.15-6.383 3.705-13.91 4.67-20.74 3.32-6.838-1.353-13.54-5.164-17.722-11.667-4.28-6.653-5.29-15.155-2.488-24.473 1.263-4.205 5.703-6.59 9.903-5.328 4.208 1.266 6.59 5.702 5.326 9.905-3.14 10.446 2.455 14.85 8.074 15.962 3.367.666 6.908.128 9.666-1.472 1.023-.592 1.978-1.352 2.812-2.315l1.927-3.28-.763-4.475c-1.222-11.77 2.472-25.015 7.742-36.974-4.896-8.85-7.68-19.024-7.68-29.85 0-18.35 8.01-34.84 20.723-46.156.03-.342.046-.702.053-1.093.04-2.236.577-7.064 1.56-11.694l.03-.13.018-.07c.24-1.124.52-2.258.82-3.338.066-.238.136-.473.174-.603l.026-.085.36-1.08.418-1.175c.826-2.152 1.79-3.886 3.033-4.776.338-.24.71-.37 1.074-.424 1.262-.183 2.713.537 3.87 1.255 1.3.804 2.75 1.94 4.196 3.192 2.615 2.264 5.32 5.003 7.254 7.115 5.745-1.767 11.846-2.718 18.17-2.718 5.695 0 11.21.772 16.448 2.216 1.975-2.125 4.615-4.762 7.135-6.91 1.385-1.18 2.768-2.242 4.008-2.992 1.123-.676 2.503-1.333 3.718-1.156.363.053.734.183 1.072.424 2.387 1.7 3.892 6.735 4.815 10.966.915 4.21 1.456 8.632 1.59 11.152 14.023 11.328 22.996 28.662 22.996 48.08 0 7.58-1.367 14.842-3.867 21.553 10.14 20.444 17.18 47.773 1.752 64.665-1.255 1.376-2.797 2.626-4.566 3.764-.573 3.378-2.674 6.455-5.954 8.138-4.072 2.09-8.828 1.453-12.183-1.24-28.56 6.54-73.816 3.637-88.353-8.528zm82.48 6.925l3.677-.755c-.276-.4-.53-.825-.757-1.27l-17.352-33.82-7.552 1.684c-2.973.44-6.015.665-9.107.665-2.506 0-4.976-.15-7.4-.438-2.62-.313-5.19-.79-5.82-.98-1.62-.374-1.358-.31-4.073-1.034.952.304-1.034-.276-2.95-1.003-.602-.146-1.21-.37-1.797-.632-1.864-.694-3.398-1.356-4.844-2.055-1.474 1.925-3.352 3.478-5.136 4.77-.614.444-1.47.307-1.915-.305-.444-.614-.307-1.47.305-1.915 1.855-1.343 3.616-2.84 4.877-4.635.084-.12.183-.22.294-.304l-.238.27.393-.443.046-.05.004-.004c.218-.245.428-.495.63-.753l1.2-1.836.514-.78c.46-.863.837-1.742 1.104-2.59l.055-.27.01-.053.04-.104.147-.5c.152-.675.227-1.323.214-1.92.01-.427-.027-.814-.168-.99-.024-.292-.112-.538-.227-.75-.093-.368-.303-.638-.575-.863l-.194-.084-1.138-.497-.15.057-.254.097c-.247.11-.556.26-1.01.502-.028-.01-.404.183-.896.46-.394.203-.935.498-1.568.858-.08.032-.537.288-1.04.586-.01.004-.054.03-.096.055-.65.368-1.275.728-1.803 1.037-.696.407-1.377.81-2.02 1.197l-.028.018-.1.062-.015.007c-.928.56-1.77 1.08-2.434 1.5l-.318.2.477-.3c-1.613 1.435-3.444 2.606-5.213 3.604-.658.373-1.495.14-1.866-.52-.373-.657-.14-1.493.52-1.864 1.232-.698 2.44-1.453 3.545-2.293-1.247-1.102-2.45-2.253-3.602-3.452-.974-1.01-1.913-2.055-2.816-3.132l1.9 2.074-.003-.004-2.77-3.2-.034-.04c-1.13-1.37-1.84-2.33-2.523-3.312l1.213 1.595-.007-.013c-1.015-1.285-1.706-2.282-2.32-3.34-.32-.397-.384-.495-.446-.594l-3.095 7.913c-3.522 10.56-5.12 21.266-2.91 30.43l.1.408-.15.397c-1.298 3.428-3.52 5.76-6.075 7.243-3.382 1.962-7.61 2.576-11.573 1.79-6.923-1.37-13.852-7.184-10.166-19.44.827-2.754-.735-5.663-3.488-6.49-2.754-.828-5.663.736-6.49 3.49-2.613 8.69-1.61 16.336 2.167 22.203 3.714 5.773 9.71 9.226 15.95 10.46 6.233 1.235 13.074.343 18.833-3 1.73-1.002 3.34-2.217 4.79-3.635-1.247-2.145-2.15-4.478-3.264-6.5-.365-.664-.124-1.497.537-1.863.664-.365 1.498-.124 1.863.537 1.63 2.956 2.745 6.332 4.8 8.678 11.297 11.035 52.235 15.01 81.577 9.783zm16.805.405c2.806-1.44 4.473-4.23 4.61-7.174l-.093-.353-.048-.185.108-.363c.004-.018.015-.065-.02-.17l-.05-.157-.016-.162c-.097-1.148-.373-2.03-.81-2.88l-6.51-12.692-1.825.996c-1.695.74-3.516 1.28-5.316 1.61-1.802.332-3.58.45-5.19.343-4.088-.272-8.51-2.344-6.972-7.42 1.166-3.852 7.022-4.81 8.647-7.108.19-.268.583-.998 1.07-1.94l1.33-2.568-2.778-5.418-.685-1.305.97-.695c2.132-1.527 4.153-3.19 6.04-5.025l.88-.772c.1-.1.2-.2.303-.298l.462-.607.033-.042.08-.074c.335-.314.647-.62.868-.884.892-.84 1.17-1.15 1.16-1.18.576-.645 1.08-1.27 1.556-1.917l.048-.068.647-.667c.197-.25.393-.504.586-.756l.403-.68.013-.02.05-.066c.92-1.193 1.686-2.275 2.157-2.963.704-1.088 1.372-2.198 2.003-3.33l.097-.29.022-.064.31-.428c.08-.152.16-.304.062-.16.068-.13.194-.376.433-.853.994-1.866 1.86-3.805 2.622-5.795l.02-.047c2.498-6.54 3.87-13.638 3.87-21.054 0-19.562-9.532-36.91-24.24-47.605-.788-.66-1.632-1.244-2.316-1.66-.84-.587-1.71-1.13-2.424-1.473-.843-.577-1.734-1.076-2.45-1.425-.896-.505-1.82-.963-2.58-1.243-.877-.483-1.798-.89-2.54-1.163-.44-.172-1.294-.506-2.765-1.087-.902-.305-1.796-.594-2.728-.87-5.378-1.644-11.088-2.516-17-2.516-7.105 0-13.914 1.257-20.19 3.622-1.01.29-2.124.73-3.21 1.226-.664.26-1.512.647-2.314 1.114-.905.358-1.94.896-2.946 1.484-.625.314-1.454.798-2.234 1.36-.817.418-1.782 1.046-2.71 1.73-.588.365-1.39.946-2.132 1.595-.73.468-1.617 1.18-2.46 1.944C49.39 37.094 41.31 53.235 41.31 71.253c0 11.35 3.203 21.955 8.802 30.928.107.256.334.596.634 1l.042.06.036.062c.18.31.367.617.598.943.444.723 1.08 1.62 1.783 2.46.236.396.563.816 1.036 1.353l.052.064c.16.22.327.435.52.65.427.583 1.1 1.365 1.834 2.09.062.08.153.172.248.267l.058.062.052.067c.32.42.696.818 1.15 1.255l3.472 3.24-.058-.054c.236-.165.513-.247.79-.247.26-.157.53-.322.81-.494l-.016.01.055-.033c.047-.03.093-.056.14-.085l-.126.076.128-.076.032-.02-.076.047.188-.116c-.007.005-.013.01-.088.053l-.08.05.2-.12.45-.272c.16-.1.525-.316.685-.41l.498-.293c.634-.37 1.38-.804 2.147-1.237.278-.168.583-.344.726-.42.178-.1.36-.2.54-.302l-.002.002c1.463-.817 2.91-1.586 3.888-1.983.343-.146.623-.245.828-.292l.09-.02.49-.042.19.038c.757.152 1.41.395 1.97.71l-1.38-.84c-.017-.01-.032-.02-.045-.034-1.382-.932-2.71-1.94-3.958-3.033-.43-.33-.832-.685-1.19-1.083-1.043-.888-1.8-1.635-2.498-2.44-.524-.493-.884-.89-1.204-1.322-.963-1.05-1.61-1.86-2.192-2.724-.435-.495-.713-.88-.963-1.286-1.084-1.533-1.904-2.872-2.655-4.255-.018-.027-.03-.052-.042-.078-.802-1.475-1.524-2.997-2.138-4.577-.226-.486-.42-.985-.554-1.513-.528-1.3-.86-2.346-1.112-3.426-.238-.683-.373-1.215-.453-1.765-.608-2.45-.937-4.57-.646-2.964-.43-3.266-.378-2.763-.293-2.272-.042-.38-.083-.74-.116-1.08-.025-.09-.043-.18-.05-.273-.02-.215-.037-.433-.03-.654-.108-1.28-.14-2.31-.14-3.352 0-.887.023-1.77.288-5.184-.12.882.062-.75.378-2.34.106-1.128.497-2.968 1.04-4.746.066-.416.153-.716.26-1.007.518-1.752 1.048-3.2 1.648-4.617.098-.234.2-.47.33-.687.17-.458.366-.882.614-1.272.724-1.6 1.378-2.792 2.123-3.92.167-.38.31-.606.453-.835l.06-.086c4.976-7.806 12.263-14.022 20.896-17.677 5.502-2.327 11.548-3.615 17.895-3.615 1.585 0 3.153.082 4.697.24 4.637.468 9.07 1.63 13.196 3.375 8.443 3.576 15.6 9.6 20.884 17.737.044-.008.062.02.08.047.132.21.264.42.414.764.766 1.158 1.437 2.38 2.177 4.02.24.375.427.783.592 1.225.13.217.23.45.33.685.6 1.416 1.13 2.87 1.65 4.625.107.294.195.595.263 1.02.528 1.724.91 3.51 1.034 4.728.298 1.456.47 2.956.38 2.34.256 3.143.29 4.16.29 5.18 0 1.298-.053 2.58-.16 3.847 0 .01 0 .018-.004.058-.41 4.906-1.603 9.622-3.453 13.993-4.656 11.002-13.476 19.82-24.477 24.477-5.502 2.328-11.548 3.614-17.894 3.614-1.817 0-3.61-.103-5.36-.337.01.004.024.006.037.008.753.107.393.063 0 0-.442-.06-1.268-.175-2.7-.367 2.144.393-.258.02-2.573-.58-.368-.03-1.082-.21-1.77-.454-1.435-.364-2.447-.695-3.42-1.11-.644-.18-1.088-.352-1.516-.555-1.77-.704-3.196-1.387-4.577-2.138-.015-.006-.026-.01-.036-.018l-1.887-1.147.09.093-.028-.027c.4.302.743.65 1.026 1.033l.327.33c.05.083.1.165.146.46.235.48.4 1 .505 1.538l-.022-.505c.117.442.187.906.106 2.355l.007.15-.006.066-.008.166.13-.917c.007.765-.086 1.57-.4 2.78l-.165.62-.05.157.22-.607c-.067.267-.146.538-.714 2.01l-.006.026.39-.933c-.008.028-.017.055-.39.934.35-.81.335-.77.32-.73-.093.267-.194.535-.303.802-.183.45-.386.897-.607 1.34l.144-.348-.033.077-.422.873-.216.392-.08.152-.53.928-.047-.01-.09.136-.577.754 3.817 1.667.85.37c1.746.645 3.53 1.207 5.357 1.666.16.066.66.194 1.182.267 1.802.49 3.77.866 5.79 1.085.682.154 1.546.256 2.325.33 1.958.185 3.85.277 5.762.277 5.916 0 11.63-.872 17.018-2.493l1.125-.336.04-.013.47 1.078.258.537 10.894 21.237 6.645 12.95c2.143 4.174 7.272 5.824 11.445 3.68zm-11.517.692l-1.432-1.89-.143.03-.036.008c.473.685 1.016 1.304 1.61 1.852zm18.77-9.8l.48-.333c.756-.605 1.426-1.228 2.01-1.87 12.444-13.62 9.142-35.218 1.207-54.19l-2.353-5.115-.29.667c-.112.25-.193.428-.23.505l-.59 1.132-.268.486c-.258.514-.43.857-.555 1.1l-.34.565-.03.09-.03.064c-.075.163-.215.422-.553 1-.194.382-.41.75-.63 1.114l.122-.228-.63 1.087c-.077.128-.278.44-.577.877-2.918 4.51-6.414 8.617-10.375 12.217l-4.676 3.775 1.566 3.05.035.068c.327-.82.6-1.653.815-2.43.2-.73.954-1.16 1.683-.96.732.198 1.16.953.962 1.682-.62 2.268-1.785 5.202-3.397 7.217-.764 1.483-1.506 2.908-1.862 3.407-2.625 3.715-7.486 3.764-8.26 6.315-.198.657-.194 1.228-.01 1.712-.09-.064-.065.018.037.07.16.454.486.83.945 1.125-.163-.007-.02.088.246.128.37.267.878.463 1.454.605.44.112.915.19 2.076.243.688.055 1.427.042 2.165-.055.312.027.66-.01.806-.053.642-.062 1.296-.17 1.692-.256.684-.145 1.11-.25 1.435-.352.634-.157 1.257-.356 1.774-.608.44-.104.852-.27 1.21-.433.954-.413 1.853-.9 2.665-1.453l1.01-.69c.375-.355.762-.777 1.175-1.263.943-1.108 1.92-2.43 2.962-3.443.54-.528 1.41-.516 1.936.027.53.54.516 1.41-.027 1.937-.892.87-1.81 2.11-2.782 3.257-.508.597-1.078 1.228-1.717 1.787l6.586 12.834c.296.583.54 1.178.723 1.82l-.023-.128c.2.627.344 1.26.432 1.898zm-.398-1.713l-.01-.054v-.002l.01.056zm-23.703-13.353l.007.003c-.004 0-.006 0-.007-.002zM77.26 121.337v-.002l.464-.992-.463.994zm.434-1.034l.013-.03-.013.03zm.106-.327l.402-1.113.006-.02-.408 1.133zm.857-3.527l.035-.243v-.003l-.035.246zm-16.183-1.063l.757-.46-.007.003-.186.114.044-.028-.606.37zm.607-.37l.14-.085-.004.002-.01.005-.038.022-.087.054zm.15-.09l.015-.01.026-.016-.04.025zm.174-.108l-.097.06-.02.013.06-.038c-.02.014-.052.034-.102.063l.16-.098zm-.133.082l.078-.048.032-.02-.11.067zm79.892-37.496c-1.972.84-4.14 1.304-6.41 1.304-9.037 0-16.368-7.332-16.368-16.367 0-8.6 6.646-15.66 15.082-16.316-7.853-10.908-20.662-18.016-35.117-18.016-14.464 0-27.278 7.115-35.13 18.033 8.33.76 14.863 7.773 14.863 16.3 0 9.034-7.335 16.367-16.368 16.367-2.18 0-4.26-.424-6.16-1.2 3.032 20.913 21.048 36.994 42.794 36.994 21.78 0 39.82-16.133 42.812-37.096zm-87.324 36.69l-.875-1.01-.042-.047.918 1.058zm22.78-.067v-.054l-.003-.002.004.057zm-23.64-.93l-.04-.045.025.033.014.012zm21.95-2.167l-.286-.288.004.003.283.285zm-.144-.144l-.138-.14-.033-.034.17.174zm-.142-.144l-.033-.033.032.032zm-.03-.03l-.003-.005-.005-.004.008.01zm-.584-.385l.227.137.012.005c-.078-.048-.157-.096-.24-.143zm.217.133l-.217-.133-.004-.002.22.135zm10.872-23.09c-.18-1.12.58-2.176 1.7-2.357 3.902-.63 6.915-2.5 9.64-5.04v-5.628c-2.387-.285-4.702-.956-6.633-1.88-1.023-.487-1.458-1.714-.97-2.74.488-1.023 1.715-1.458 2.74-.97 4.342 2.07 10.61 2.356 13.615-.235.857-.742 2.156-.647 2.896.213.742.86.647 2.158-.213 2.898-1.97 1.702-4.574 2.563-7.322 2.797v5.208c3.073 2.492 6.468 4.388 10.398 5.42 1.098.287 1.754 1.41 1.467 2.51-.29 1.097-1.412 1.753-2.51 1.466-3.976-1.042-7.437-2.836-10.523-5.106l-.645-.486-.58.508c-2.89 2.458-6.318 4.418-10.703 5.126-1.12.18-2.176-.58-2.357-1.702zm55.297-12.532l1.086-.594c.064-.955.097-1.918.097-2.89 0-.86-.028-1.712-.178-3.706-.034-.234-.15-1.23-.39-3.292.29 1.626-.035-.534-.636-2.962-.117-.69-.29-1.356-.416-1.62-.284-1.183-.656-2.327-1.062-3.28-.157-.576-.37-1.124-.497-1.35-.582-1.5-1.265-2.945-2.022-4.344l-1.536-2.62c-.115-.18-.232-.358.35.656l-.46-.022c-7.522 0-13.627 6.108-13.627 13.627 0 7.52 6.105 13.628 13.627 13.628 2.02 0 3.938-.44 5.662-1.23zm-65.072-12.4c0-7.518-6.108-13.626-13.627-13.626l-.22.01-.06.003c-.457.747-.893 1.51-1.29 2.298-.69 1.252-1.313 2.584-1.845 3.963-.152.298-.378.88-.546 1.488-.39.897-.75 2.008-1.022 3.157-.133.297-.312.98-.433 1.684-.516 2.028-.82 3.904-.542 2.4-.43 3.11-.4 2.805-.338 2.51-.217 1.646-.316 3.327-.316 5.03 0 1.02.035 2.03.104 3.033l1.022.53c1.677.74 3.532 1.15 5.485 1.15 7.52 0 13.627-6.108 13.627-13.628zM65.067 66.58c0-2.964 2.408-5.372 5.372-5.372 2.962 0 5.37 2.408 5.37 5.372 0 2.965-2.408 5.373-5.37 5.373-2.965 0-5.373-2.408-5.373-5.373zm60.972-.002c0-2.964 2.406-5.372 5.37-5.372 2.965 0 5.373 2.408 5.373 5.372 0 2.965-2.408 5.374-5.372 5.374s-5.37-2.41-5.37-5.374zm17.304 0l.075.97c.03.21-.006-.186-.076-.97zm-22.366-20.642l1.347-7.613c.13-.746.842-1.243 1.588-1.11.745.13 1.242.84 1.11 1.586l-1.346 7.613c-.132.746-.843 1.243-1.588 1.11-.746-.13-1.243-.84-1.112-1.587zm-42.76.448l-1.916-7.488c-.188-.732.254-1.478.99-1.666.73-.188 1.477.254 1.665.988l1.917 7.488c.188.733-.254 1.478-.99 1.667-.732.188-1.477-.254-1.665-.99zm37.52-1.432l1.348-7.614c.132-.746.844-1.243 1.588-1.11.746.13 1.243.843 1.11 1.587l-1.347 7.613c-.132.746-.845 1.243-1.588 1.11-.747-.13-1.244-.843-1.112-1.586zm-32.368.058l-1.917-7.49c-.188-.732.256-1.478.988-1.666.734-.188 1.48.256 1.668.99l1.916 7.488c.19.733-.255 1.478-.988 1.667-.733.187-1.478-.257-1.666-.99zM62.154 22.704l2.41-1.81c.253-.18.51-.36.715-.5 1.895-1.31 3.812-2.483 5.8-3.544.238-.137.468-.26.718-.347 1.94-1.053 3.81-1.91 5.748-2.626.295-.17.545-.267.795-.364l1-.35-.2-.214c-1.75-1.85-3.92-3.992-6.008-5.8-1.396-1.21-2.722-2.24-3.844-2.935-.938-.58-1.532-.79-1.83-.853l-.155-.013-.23.2c-.722.745-1.553 2.395-2.494 5.386-.037.123-.1.348-.165.576-.287 1.02-.552 2.1-.792 3.218l-.018.076-.018.084c-.718 3.375-1.184 6.834-1.387 9.2l-.046.614zm74.196-1.654l-.15-.102-.04-.395c-.254-2.285-.687-5.158-1.294-7.948-.906-4.155-2.084-7.464-3.237-8.845l-.427-.41-.133.012c-.282.054-.84.248-1.713.774-1.057.638-2.313 1.594-3.647 2.73-1.995 1.7-4.09 3.74-5.84 5.566l-.153.16.775.245c.384.134.766.27 1.345.56 1.352.423 2.653.96 4.403 1.827.67.24 1.307.548 2.09 1.006 1.276.587 2.5 1.263 4.29 2.423.43.187.82.43 1.218.69-.02-.017-.044-.032-.066-.048l.067.047.01.004.71.486-.72-.492c-.004-.002-.008-.003-.002.002.853.548 1.69 1.118 2.512 1.708zm-13.56-4.388c.015.007.03.012.052.025.826.32.39.14-.05-.025zm-2.674-1.05c1.386.492 1.11.372 0 0zm-.05-.02c.004.004.01.006.01.008-.097-.038.02.002.04.01-.008 0-.03-.008-.05-.017z" fill="#95A5A6" fill-rule="evenodd"/></svg>