<svg width="40" height="49" viewBox="0 0 40 49" xmlns="http://www.w3.org/2000/svg" xmlns:xlink="http://www.w3.org/1999/xlink"><defs><linearGradient x1="-3.507%" y1="-41.367%" x2="96.679%" y2="106.51%" id="a"><stop stop-color="#2EB2AB" offset="0%"/><stop stop-color="#019789" offset="96.69%"/><stop stop-color="#009688" offset="100%"/></linearGradient><path id="c" d="M4 10h6v5.143H4z"/><filter x="-66.7%" y="-38.9%" width="233.3%" height="255.6%" filterUnits="objectBoundingBox" id="b"><feOffset dy="2" in="SourceAlpha" result="shadowOffsetOuter1"/><feGaussianBlur stdDeviation="1" in="shadowOffsetOuter1" result="shadowBlurOuter1"/><feColorMatrix values="0 0 0 0 0.558415873 0 0 0 0 0.639638107 0 0 0 0 0.659943665 0 0 0 0.430027174 0" in="shadowBlurOuter1"/></filter></defs><g fill="none" fill-rule="evenodd"><rect fill="#FFF" width="40" height="49" rx="1"/><rect fill="url(#a)" x="2" y="2" width="36" height="16" rx="1"/><use fill="#000" filter="url(#b)" xlink:href="#c"/><use fill="#FFF" xlink:href="#c"/><path fill="#F7F1D8" d="M30 22h6v5.143h-6z"/><path fill="#505F6E" fill-rule="nonzero" d="M4.5 34H34v-1H4.5"/><path fill="#1B72D4" fill-rule="nonzero" d="M4 24h8v-2H4"/><path fill="#ECF0F1" fill-rule="nonzero" d="M12 24h8v-2h-8"/><path d="M12 12h12" stroke="#FFF" stroke-width="2" stroke-linecap="square"/><path d="M11.5 14h11.01" stroke="#FFF" opacity=".64" stroke-linecap="square"/><path fill="#FFF3E0" fill-rule="nonzero" d="M5 4h12V2H5"/><path fill="#505F6E" fill-rule="nonzero" d="M4.5 37H30v-1H4.5M4.5 40h31.516v-1H4.5"/><path fill="#ECF0F1" fill-rule="nonzero" d="M4 45h12v-2H4M17 45h12v-2H17M4 28h12v-2H4"/></g></svg>