<svg width="40" height="62" viewBox="0 0 40 62" xmlns="http://www.w3.org/2000/svg"><g fill="none" fill-rule="evenodd"><path fill="#FFF" d="M0 0h40v62H0z"/><path fill="#335E89" d="M0 0h40v19H0z"/><ellipse fill="#94A4A5" cx="7" cy="9" rx="3" ry="3"/><path fill="#FFF" fill-rule="nonzero" d="M14 10h15V8H14"/><path fill="#505F6E" fill-rule="nonzero" d="M4 26h30v-2H4M4 31h17v-2H4M4.5 47H34v-1H4.5M4.5 50H30v-1H4.5M4.5 53h31.516v-1H4.5"/><path fill="#ECF0F1" fill-rule="nonzero" d="M4 37h12v-2H4M4 58h12v-2H4M17 58h12v-2H17M4 41h12v-2H4M18 37h17v-2H18M18 41h18v-2H18"/></g></svg>