<svg width="40" height="49" viewBox="0 0 40 49" xmlns="http://www.w3.org/2000/svg" xmlns:xlink="http://www.w3.org/1999/xlink"><defs><rect id="b" x="27" y="14" width="10" height="8" rx="1"/><filter x="-40%" y="-25%" width="180%" height="200%" filterUnits="objectBoundingBox" id="a"><feOffset dy="2" in="SourceAlpha" result="shadowOffsetOuter1"/><feGaussianBlur stdDeviation="1" in="shadowOffsetOuter1" result="shadowBlurOuter1"/><feColorMatrix values="0 0 0 0 0.558415873 0 0 0 0 0.639638107 0 0 0 0 0.659943665 0 0 0 0.430027174 0" in="shadowBlurOuter1"/></filter></defs><g fill="none" fill-rule="evenodd"><rect fill="#FFF" width="40" height="49" rx="1"/><rect fill="#335E89" x="2" y="2" width="36" height="16" rx="1"/><use fill="#000" filter="url(#a)" xlink:href="#b"/><use fill="#FFF3E0" xlink:href="#b"/><path fill="#505F6E" fill-rule="nonzero" d="M4.5 34H34v-1H4.5"/><path fill="#ECF0F1" fill-rule="nonzero" d="M4 24h20v-2H4"/><path d="M12 12h12" stroke="#FFF" stroke-width="2" stroke-linecap="square"/><path d="M11.5 14h11.01" stroke="#FFF" opacity=".64" stroke-linecap="square"/><path fill="#FFF3E0" fill-rule="nonzero" d="M5 4h12V2H5"/><path fill="#505F6E" fill-rule="nonzero" d="M29 20h4.5v-1H29M29 18h4.5v-1H29M29 16h6.5v-1H29M4.5 37H30v-1H4.5M4.5 40h31.516v-1H4.5"/><path fill="#ECF0F1" fill-rule="nonzero" d="M4 45h12v-2H4M17 45h12v-2H17M4 28h12v-2H4"/></g></svg>