<svg width="40" height="49" viewBox="0 0 40 49" xmlns="http://www.w3.org/2000/svg"><g fill="none" fill-rule="evenodd"><rect fill="#FFF" width="40" height="49" rx="1"/><path fill="#1B72D4" d="M0 0h40v19H0z"/><path fill="#FFF" fill-rule="nonzero" d="M5 7h15V5H5M5 8.5h21.5v-1H5M5 14h18v-2H5"/><path fill="#505F6E" fill-rule="nonzero" d="M4.5 34H34v-1H4.5M4.5 37H30v-1H4.5M4.5 40h31.516v-1H4.5"/><path fill="#ECF0F1" fill-rule="nonzero" d="M4 24h12v-2H4M4 45h12v-2H4M17 45h12v-2H17M4 28h12v-2H4M18 24h17v-2H18M18 28h18v-2H18"/></g></svg>