<svg width="40" height="49" viewBox="0 0 40 49" xmlns="http://www.w3.org/2000/svg" xmlns:xlink="http://www.w3.org/1999/xlink"><defs><rect id="b" x="27" y="14" width="10" height="8" rx="1"/><filter x="-40%" y="-25%" width="180%" height="200%" filterUnits="objectBoundingBox" id="a"><feOffset dy="2" in="SourceAlpha" result="shadowOffsetOuter1"/><feGaussianBlur stdDeviation="1" in="shadowOffsetOuter1" result="shadowBlurOuter1"/><feColorMatrix values="0 0 0 0 0.558415873 0 0 0 0 0.639638107 0 0 0 0 0.659943665 0 0 0 0.430027174 0" in="shadowBlurOuter1"/></filter></defs><g fill="none" fill-rule="evenodd"><rect fill="#FFF" width="40" height="49" rx="1"/><rect fill="#1B72D4" x="2" y="2" width="36" height="16" rx="1"/><use fill="#000" filter="url(#a)" xlink:href="#b"/><use fill="#FFF" xlink:href="#b"/><path fill="#505F6E" fill-rule="nonzero" d="M4.5 34H34v-1H4.5"/><path fill="#ECF0F1" fill-rule="nonzero" d="M4 24h20v-2H4"/><path fill="#FFF" fill-rule="nonzero" d="M5 8h14V6H5M5 16h14v-1H5"/><path fill="#FFF" fill-rule="nonzero" opacity=".462" d="M5 9.5h6.025v-1H5M13 9.5h6.025v-1H13M5 11.5h6.025v-1H5"/><path fill="#FFF3E0" fill-rule="nonzero" d="M5 4h12V2H5"/><path fill="#505F6E" fill-rule="nonzero" d="M29.5 20H34v-1h-4.5M4.5 37H30v-1H4.5M4.5 40h31.516v-1H4.5"/><path fill="#ECF0F1" fill-rule="nonzero" d="M29 18h6.123v-2H29M4 45h12v-2H4M17 45h12v-2H17M4 28h12v-2H4"/></g></svg>