<svg width="40" height="91" viewBox="0 0 40 91" xmlns="http://www.w3.org/2000/svg"><g fill="none" fill-rule="evenodd"><rect fill="#FFF" y="21" width="40" height="70" rx="1"/><circle fill="#94A4A5" cx="7" cy="28" r="3"/><path fill="#505F6E" fill-rule="nonzero" d="M13 29h15v-2H13"/><circle fill="#94A4A5" cx="5" cy="3" r="3"/><circle fill="#94A4A5" cx="5" cy="13" r="3"/><path fill="#505F6E" fill-rule="nonzero" d="M10 4h19V2H10M10 14h15v-2H10M4 42h24v-2H4M4 66h24v-2H4M4 71h17v-2H4M4 77h23v-2H4M4 83h17v-2H4"/><path fill="#94A4A5" fill-rule="nonzero" d="M10 48h19v-2H10M10 54h19v-2H10M10 60h19v-2H10"/></g></svg>