<svg width="40" height="114" viewBox="0 0 40 114" xmlns="http://www.w3.org/2000/svg"><g fill="none" fill-rule="evenodd"><g transform="translate(0 16)"><rect fill="#FFF" width="40" height="86" rx="1"/><path fill="#505F6E" fill-rule="nonzero" d="M3 19h7.5v-2H3M3 8h14V6H3M3 39h14v-2H3M3 64h14v-2H3M10.5 44h13v-1h-13M10.5 69h13v-1h-13M10.5 49h13v-1h-13M10.5 74h13v-1h-13M10.5 54h13v-1h-13M10.5 79h13v-1h-13"/><path fill="#ECF0F1" fill-rule="nonzero" d="M11 12h15v-2H11M3.5 28h14v-1h-14M3.5 30H20v-1H3.5M3.5 32H14v-1H3.5M3 25h15v-4H3M3 45h5v-4H3M3 70h5v-4H3M3 50h5v-4H3M3 75h5v-4H3M3 55h5v-4H3M3 80h5v-4H3M19 25h17v-4H19"/><path fill="#0288D1" fill-rule="nonzero" d="M4 12h4v-2H4M3.5 58h3v-1h-3M3.5 83h3v-1h-3"/></g><path fill="#0288D1" fill-rule="nonzero" d="M28.5 11.833h11v-1h-11"/><rect fill="#FFF" width="31" height="8" rx="1"/><rect fill="#2ECC71" x="32" width="8" height="8" rx="1"/><g transform="translate(0 105)"><rect fill="#2ECC71" width="40" height="9" rx="1"/><path fill="#FFF" fill-rule="nonzero" d="M10.5 5H30V4H10.5"/></g></g></svg>