<svg xmlns="http://www.w3.org/2000/svg" width="95" height="91" viewBox="-119.6 -200.1 95 91" class="undefined"> <style> .a{ fill:#134785; } .b{ fill:#F89C0E; } .c{ fill:#FFF; } .d{ fill:none; } </style> <path d="M515.4 117.3c0 8.3-6.8 15-15 15H15C6.8 132.3 0 125.6 0 117.3V15C0 6.8 6.8 0 15 0h485.3c8.3 0 15 6.8 15 15V117.3" class="a"/> <path d="M-55.9-155c-0.5-10.4-8.3-16.6-17.6-16.6h-0.4c-10.8 0-16.7 8.5-16.7 18.1 0 10.8 7.2 17.6 16.7 17.6 10.6 0 17.5-7.7 18-16.9L-55.9-155zM-73.8-181c7.2 0 13.9 3.2 18.9 8.2v0c0-2.4 1.6-4.2 3.8-4.2l0.6 0c3.5 0 4.2 3.3 4.2 4.3l0 37.1c-0.2 2.4 2.5 3.7 4 2.1 6-6.1 13.1-31.5-3.7-46.2 -15.7-13.7-36.7-11.4-47.8-3.7 -11.9 8.2-19.5 26.3-12.1 43.4 8 18.6 31.1 24.1 44.8 18.6 6.9-2.8 10.1 6.6 2.9 9.6 -10.9 4.6-41.1 4.2-55.3-20.3 -9.6-16.5-9-45.6 16.3-60.7 19.4-11.5 44.9-8.3 60.4 7.8 16.1 16.8 15.2 48.3-0.5 60.6 -7.1 5.6-17.7 0.2-17.6-8l-0.1-2.7c-5 4.9-11.6 7.8-18.7 7.8 -14.2 0-26.7-12.5-26.7-26.7C-100.5-168.3-88-181-73.8-181L-73.8-181" class="undefined"/> <path d="M353.1 93.9c0 2.3-2.4 4.7-5.9 4.7 -3.5 0-5.7-2.6-5.7-4.8l0-3.9c0-2.4 2.2-4.8 5.8-4.8 3.9 0 5.8 2.6 5.8 5.1L353.1 93.9" class="b"/> <path d="M294.4 29.5c0 2.4-2.4 4.4-5.9 4.4 -3.5 0-5.7-2.4-5.7-4.7l0-3.1c0-2.4 2.1-5 5.7-5 3.9 0 5.9 2.5 5.9 5V29.5" class="c"/> <path d="M476.2 34v2.5h1.8c0.5 0 0.8-0.1 1.1-0.3 0.3-0.2 0.4-0.6 0.4-1 0-0.4-0.1-0.7-0.4-0.9 -0.2-0.2-0.7-0.3-1.3-0.3H476.2zM475 40.4v-7.3h3.2c0.9 0 1.6 0.2 2.1 0.5 0.5 0.3 0.7 0.8 0.7 1.5 0 0.5-0.1 0.8-0.4 1.1 -0.3 0.3-0.6 0.5-1.1 0.6v0.1c0.4 0.1 0.8 0.2 1 0.5 0.2 0.2 0.3 0.7 0.4 1.2 0 0.7 0 1.1 0.1 1.3 0 0.2 0.1 0.3 0.2 0.4h-1.3c-0.1-0.1-0.2-0.3-0.2-0.5 0-0.2-0.1-0.5-0.1-1.1 0-0.6-0.1-1.1-0.4-1.3 -0.2-0.2-0.6-0.3-1.1-0.3h-1.7v3.1H475" class="b"/> <path d="M477.8 43.2c-3.5 0-6.4-2.9-6.4-6.4 0-3.5 2.9-6.4 6.4-6.4 3.5 0 6.4 2.9 6.4 6.4C484.2 40.3 481.3 43.2 477.8 43.2zM477.8 29.3c-4.1 0-7.5 3.4-7.5 7.5s3.4 7.5 7.5 7.5c4.2 0 7.5-3.4 7.5-7.5S482 29.3 477.8 29.3" class="b"/> <path d="M189.3 38.4c-7.1-0.1-12.6 4-16 6.8 -3.7-4-8.5-6.5-13.5-6.8 -5.2-0.3-10.1 1.4-13.2 3.9 -1.1-2.5-2.5-4-5-4 -2.7 0-5.5 2.3-5.5 6s0 48.5 0 48.5c0 2.8 2.4 5.6 5.8 5.6 3.7 0 5.8-2.9 5.8-5.6V56.9c0-3.5 6-7.6 11-7.6 3.2 0 7.1 3.2 7.1 8.3l0 35.4c0 3.1 3.1 5.5 6 5.5 3.4 0 6-2.6 6-5.5V57.2c0-4.4 6.7-8.1 11.2-7.8 3.6 0.2 6.7 4.1 6.7 7.8v35.7c0 3.1 2.9 5.5 6 5.5 2.7 0 5.9-1.8 5.9-5.6V57.3C207.9 44.3 195 38.2 189.3 38.4" class="c"/> <path d="M288.5 38.4c-3.5 0-5.7 2.9-5.7 5.8l0 48.7c0 3.2 2.5 5.6 5.7 5.6 3.6 0 5.9-2.8 5.9-5.9l0-48.4C294.5 41.3 291.6 38.3 288.5 38.4" class="c"/> <path d="M243.8 87.4c-10.5 0-19-8.5-19-19s8.5-19 19-19c10.5 0 19 8.5 19 19S254.3 87.4 243.8 87.4L243.8 87.4zM268.3 38.4c-3.3 0-5.6 2.6-5.6 5.2v2c-5.2-4.4-11.9-7.1-19.1-7.1 -15.9 0-30 13.4-30 30.1 0 15.4 13.4 30 30 30 6.7 0 13.9-2.6 19-6.9l0 1.4c0 2.7 2.2 5.5 5.7 5.5 4 0 5.8-3.2 5.8-5.8V43.8C274.3 41.5 271.7 38.4 268.3 38.4" class="c"/> <path d="M328.4 86.9c-7.4 0-14-5.7-14-14l0-46.3c0-3.2-2.6-5.4-5.8-5.4 -3.7 0-5.8 2.7-5.8 5.4v46.4c0 14.4 11.9 25.7 25.4 25.7 4 0 6-3.3 6-6C334.2 89.9 332.1 86.9 328.4 86.9" class="c"/> <path d="M391.2 38.3c-16.2 0.1-30.1 14.4-30 30.1v24.5c0 3.2 2.6 5.5 5.4 5.5 3.3 0 5.8-2.4 5.8-5.4V68.3c0-8.9 7.8-18.8 18.7-18.7 3.6 0 5.9-2.7 5.9-5.7C397 41.5 395.3 38.3 391.2 38.3" class="b"/> <path d="M458.7 38.3c-3.5 0-5.7 2.8-5.7 5.4l0 24.7c0 9.5-8 18.8-19.2 18.8 -9.1 0-18.8-7.9-18.8-18.7V43.9c0-2.6-1.9-5.6-5.8-5.6 -2.7 0-5.5 2.3-5.5 5.5V68.5c0 16 14.3 30 30.1 30 17.3 0 30.5-14.8 30.5-30V43.8C464.3 41 462 38.3 458.7 38.3" class="b"/> <rect width="515.4" height="132.3" class="d"/> </svg>