<svg width="15" height="24" viewBox="0 0 15 24" xmlns="http://www.w3.org/2000/svg"><g fill-rule="evenodd"><path d="M6.218 16.814c-1.915-.194-3.64-.65-5.12-1.767-.182-.14-.37-.273-.54-.428-.645-.6-.71-1.29-.2-1.998.44-.606 1.174-.768 1.938-.42.148.067.29.152.424.242 2.754 1.83 6.537 1.88 9.302.082.274-.203.566-.368.906-.453.66-.164 1.275.07 1.63.63.403.636.398 1.258-.1 1.753-.765.758-1.684 1.307-2.706 1.69-.966.362-2.024.544-3.07.665.157.168.232.25.33.345 1.422 1.38 2.85 2.756 4.268 4.142.482.472.583 1.057.318 1.606-.29.6-.942.995-1.58.953-.404-.028-.72-.222-1-.495-1.072-1.043-2.166-2.067-3.217-3.13-.305-.31-.452-.25-.722.017-1.08 1.075-2.177 2.132-3.28 3.184-.496.473-1.085.558-1.66.288-.61-.286-1-.89-.97-1.494.02-.41.23-.723.52-1.004 1.408-1.358 2.81-2.72 4.215-4.08.093-.09.18-.187.315-.326z"/><path d="M1.188 6.028C1.208 2.685 4.01-.01 7.458 0c3.456.01 6.23 2.742 6.213 6.12-.017 3.3-2.837 5.974-6.286 5.962-3.415-.01-6.216-2.748-6.196-6.054zm9.3.008c-.007-1.642-1.36-2.95-3.054-2.95-1.71-.002-3.074 1.33-3.06 2.985C4.385 7.708 5.75 9.005 7.45 9c1.694-.005 3.043-1.32 3.037-2.962z"/></g></svg>