<svg width="150" height="313" viewBox="0 0 150 313" xmlns="http://www.w3.org/2000/svg">
    <g fill-rule="evenodd">
        <path d="M118.267 197.235H96.25L39.838 307.857s-1 2.765-3.51 4.25c-1.42.84-3.076.814-5.925.778-7.885-.098-26.873 0-26.873 0s-5.048-.035-3.07-5.93C2.436 301.06 64.22 191.247 64.22 191.247s-53.14-17.96-53.14-86.822c0-28.296 5.776-46.62 13.226-60.574 10.68-20.003 24.73-29.374 29.51-32.254 8.117-4.888 18.42-9.74 30.32-10.994 8.02-.846 20.42-.582 27.513-.49 3.43-.044 5.67 0 5.67 0v26.665H95.44s-31.292-.237-43.447 33.627C39.837 94.27 48.9 128.436 48.9 128.436s11.233 41.578 48.952 41.578c5.942.07 19.467 0 19.467 0v29.604"/><path d="M117.22 0h27.783C147.763 0 150 2.23 150 4.996v303.008c0 2.76-2.24 4.996-4.997 4.996h-22.788c-2.76 0-4.996-2.23-4.996-4.996V0z"/>
    </g>
</svg>