<svg width="96" height="116" viewBox="0 0 96 116" xmlns="http://www.w3.org/2000/svg"><g fill="none" fill-rule="evenodd"><path d="M51.244 114.738l-.254-.968c-.924.243-1.88.367-2.85.367v1c1.057 0 2.098-.135 3.104-.4zm6.128-3.81l-.754-.658c-.632.724-1.354 1.366-2.147 1.91l.565.824c.864-.59 1.65-1.29 2.337-2.077zm2.915-6.604l-.994-.11c-.107.958-.34 1.893-.688 2.785l.93.363c.382-.973.635-1.993.752-3.04zm-6.194-1.842v1h3v-1h-3zm-7 0v1h3v-1h-3zm-7 0v1h3v-1h-3zm-3.673 3.933l.96-.286c-.274-.916-.427-1.866-.455-2.834l-1 .028c.03 1.055.198 2.092.495 3.09zm4.028 5.994l.63-.78c-.75-.604-1.417-1.302-1.987-2.075l-.804.594c.62.84 1.348 1.6 2.162 2.26zm6.697 2.687l.08-.997c-.963-.078-1.905-.28-2.808-.598l-.332.943c.983.346 2.01.566 3.06.652zm36.657-38.425h-1v3h1v-3zm0-7h-1v3h1v-3zm0-7h-1v3h1v-3zm0-7h-1v3h1v-3zm0-5.138c0-.63-.012-1.256-.035-1.88l-1 .038c.023.61.035 1.225.035 1.842v1.138h1v-1.138zm-.823-8.91l-.983.188c.183.964.336 1.942.457 2.932l.993-.122c-.124-1.012-.28-2.012-.468-2.998zm-1.908-6.856l-.937.35c.343.918.654 1.856.932 2.812l.96-.28c-.285-.98-.604-1.94-.955-2.882zm-3.083-6.38l-.855.52c.508.838.985 1.702 1.43 2.59l.894-.445c-.457-.914-.947-1.803-1.47-2.664zm-4.273-5.64l-.73.685c.672.716 1.312 1.465 1.92 2.245l.79-.614c-.628-.805-1.288-1.577-1.98-2.315zm-5.42-4.637l-.564.828c.816.554 1.603 1.145 2.36 1.773l.64-.77c-.784-.647-1.596-1.257-2.437-1.83zm-6.325-3.347l-.37.93c.922.366 1.82.77 2.693 1.214l.453-.89c-.9-.458-1.826-.876-2.776-1.254zm-4.926-1.546l-.115.487h.5v-1.866h-1V14.1l.387.09c.354.084.705.173 1.054.266l.26-.966c-.358-.096-.72-.187-1.084-.273zm-1.043-8.41l-.845.536c.508.8.874 1.683 1.08 2.613l.976-.215c-.23-1.044-.642-2.035-1.21-2.933zM49.985.68l-.196.982c.936.187 1.827.532 2.638 1.02l.515-.858c-.91-.546-1.908-.933-2.958-1.143zm-7.06 1.41l.56.827c.784-.53 1.655-.922 2.58-1.158l-.248-.97c-1.036.265-2.013.705-2.893 1.3zm-3.95 6.143l.985.162c.155-.942.472-1.842.935-2.668l-.872-.49c-.52.928-.876 1.94-1.05 2.996zm-.124 5.47l.386-.486c-.52.123-1.032.257-1.54.4l.273.963c.492-.14.99-.27 1.496-.39l.385-.09V12.272h-1v1.432zm-7.747 2.543l.467.884c.866-.457 1.758-.876 2.674-1.256l-.384-.924c-.944.392-1.863.824-2.757 1.296zm-5.886 3.985l.648.763c.75-.64 1.53-1.24 2.336-1.806l-.573-.82c-.833.584-1.637 1.206-2.41 1.864zm-4.906 5.2l.798.605c.598-.788 1.23-1.545 1.89-2.27l-.74-.674c-.68.748-1.33 1.53-1.947 2.34zm-3.68 6.025l.9.436c.433-.893.9-1.763 1.398-2.606l-.86-.51c-.513.868-.993 1.762-1.438 2.68zm-2.507 6.664l.964.267c.267-.96.567-1.9.9-2.823l-.942-.34c-.34.946-.648 1.91-.922 2.895zm-1.346 7.002l.994.11c.112-.99.254-1.97.426-2.936l-.984-.176c-.177.988-.322 1.99-.435 3.002zm-.296 5.412v1.578h1v-1.578c0-.46.007-.92.02-1.378l-1-.028c-.013.467-.02.936-.02 1.406zm0 8.578h1v-3h-1v3zm0 7h1v-3h-1v3zm0 7h1v-3h-1v3zm0 6.56h.5l-.352-.355-.312.31.705.71.313-.31.148-.147V77.112h-1v2.56zm-5.127 4.89l.705.71 2.127-2.115-.705-.71-2.127 2.116zM2.39 89.5l.704.708 2.128-2.115-.706-.71L2.39 89.5zM.76 96.237h1v-3h-1v3zm6.584 1.416v-1h-3v1h3zm7 0v-1h-3v1h3zm7 0v-1h-3v1h3zm7 0v-1h-3v1h3zm7 0v-1h-3v1h3zm7 0v-1h-3v1h3zm7 0v-1h-3v1h3zm7 0v-1h-3v1h3zm7 0v-1h-3v1h3zm7 0v-1h-3v1h3zm7 0v-1h-3v1h3zm7 0v-1h-3v1h3zm7 0v-1h-3v1h3zm4.178-3.822h-1v3h1v-3zm-3.334-6.03l-.705.71 2.127 2.116.705-.71-2.127-2.115zm-4.964-4.935l-.705.71 2.126 2.115.705-.71-2.126-2.115zm-3.57-3.55l-.705.71.733.73.705-.71-.734-.73zM68.582 85v1h3v-1h-3zm-7 0v1h3v-1h-3zm-7 0v1h3v-1h-3zm-7 0v1h3v-1h-3zm-7 0v1h3v-1h-3zm-7 0v1h3v-1h-3zm-7 0v1h3v-1h-3zm-1.38-4.62h-1v3h1v-3zm0-7h-1v3h1v-3zm0-7h-1v3h1v-3zm0-7h-1v3h1v-3zm0-7h-1v3h1v-3zm.38-6.904l-.99-.152c-.152.992-.26 2.003-.324 3.026l.998.062c.062-.993.167-1.973.316-2.936zm1.83-6.65l-.926-.38c-.383.93-.72 1.892-1.01 2.88l.96.282c.28-.956.605-1.884.975-2.782zm3.448-5.928l-.783-.622c-.63.793-1.213 1.632-1.75 2.515l.856.52c.514-.847 1.074-1.652 1.677-2.412zm5.017-4.598l-.548-.837c-.857.56-1.673 1.18-2.445 1.86l.66.75c.737-.646 1.515-1.24 2.332-1.773zm6.29-2.76l-.247-.97c-1.003.26-1.975.58-2.914.963l.378.926c.897-.367 1.825-.674 2.784-.92zm5.974-.73c.287 0 .57.005.853.014l.033-1c-.293-.01-.588-.014-.885-.014-.724 0-1.438.03-2.14.085l.08.997c.676-.054 1.363-.082 2.06-.082zm7.584 1.21l.322-.947c-.957-.326-1.945-.59-2.962-.79l-.194.98c.973.192 1.92.445 2.834.757zm6.016 3.23l.612-.79c-.81-.627-1.663-1.196-2.555-1.703l-.494.87c.85.483 1.664 1.025 2.437 1.624zm4.69 5.02l.828-.563c-.58-.853-1.21-1.66-1.882-2.418l-.748.663c.645.726 1.246 1.5 1.803 2.316zm3.035 6.136l.947-.323c-.333-.976-.714-1.922-1.142-2.834l-.905.424c.412.878.78 1.79 1.1 2.732zM70.92 47.2l.994-.1c-.102-1.022-.248-2.028-.44-3.015l-.982.19c.186.957.328 1.933.427 2.924zm.162 6.918h1v-3h-1v3zm0 7h1v-3h-1v3zm0 7h1v-3h-1v3zm0 7h1v-3h-1v3zm0 7h1v-3h-1v3z" fill="#95A5A6"/><path d="M41.426 57.31V55h2.367v2.31h-2.367zm10.265 0V55h2.37v2.31h-2.37zm-3.338 3.41c3.078 0 5.707.62 7.886 1.862 2.18 1.242 3.633 2.547 4.36 3.914l-.012.07-1.36.446c-.835-1.07-2.175-2.002-4.02-2.795-1.843-.793-4.12-1.19-6.83-1.19h-.153c-2.71 0-4.99.395-6.832 1.184-1.843.79-3.218 1.724-4.124 2.802L36 66.566v-.07c.727-1.367 2.178-2.672 4.354-3.914 2.175-1.242 4.806-1.863 7.892-1.863h.106z" fill="#34495E" opacity=".303"/></g></svg>