<svg width="72" height="82" viewBox="0 0 72 82" xmlns="http://www.w3.org/2000/svg">
    <g fill="none" fill-rule="evenodd">
        <path stroke="#95A5A6" stroke-dasharray="4,2" d="M44.8 10.25L42.917.833H.542v80.042h9.416V47.917h26.367l1.883 9.416h32.96V10.25z"/>
        <path d="M29.57 21.37v-2.307h2.367v2.308H29.57zm10.266 0v-2.307h2.367v2.308h-2.367zm-3.34 3.41c3.078 0 5.707.622 7.887 1.865 2.18 1.242 3.633 2.546 4.36 3.914l-.013.07-1.36.444c-.835-1.07-2.175-2.002-4.018-2.795-1.844-.794-4.122-1.19-6.832-1.19h-.153c-2.71 0-4.988.394-6.832 1.183-1.844.79-3.22 1.723-4.125 2.8l-1.265-.444v-.07c.726-1.37 2.177-2.673 4.353-3.915 2.176-1.243 4.807-1.864 7.893-1.864h.106z" fill="#34495E" opacity=".303"/>
    </g>
</svg>