<svg width="88" height="84" viewBox="0 0 88 84" xmlns="http://www.w3.org/2000/svg">
  <g fill="none" fill-rule="evenodd">
    <path d="M78.25 18.167H61.083V9.583C61.083 4.82 57.263 1 52.5 1H35.333C30.57 1 26.75 4.82 26.75 9.583v8.584H9.583c-4.763 0-8.54 3.82-8.54 8.583L1 73.958c0 4.764 3.82 8.584 8.583 8.584H78.25c4.764 0 8.583-3.82 8.583-8.584V26.75c0-4.764-3.82-8.583-8.583-8.583zm-25.75 0H35.333V9.583H52.5v8.584z" stroke-dasharray="4,2" stroke="#95A5A6"/>
    <path d="M37.57 47.37v-2.307h2.367v2.308H37.57zm10.266 0v-2.307h2.367v2.308h-2.367zm-3.34 3.41c3.078 0 5.707.622 7.887 1.865 2.18 1.242 3.633 2.546 4.36 3.914l-.013.07-1.36.444c-.835-1.07-2.175-2.002-4.018-2.795-1.844-.794-4.122-1.19-6.832-1.19h-.153c-2.71 0-4.988.394-6.832 1.183-1.844.79-3.22 1.723-4.125 2.8l-1.265-.444v-.07c.726-1.37 2.177-2.673 4.353-3.915 2.176-1.243 4.807-1.864 7.893-1.864h.106z" fill="#34495E" opacity=".303"/>
  </g>
</svg>