<svg width="90" height="112" viewBox="0 0 90 112" xmlns="http://www.w3.org/2000/svg">
  <g fill="none" fill-rule="evenodd">
    <path d="M12 1C5.95 1 1.055 5.95 1.055 12L1 100c0 6.05 4.895 11 10.945 11H78c6.05 0 11-4.95 11-11V34L56 1H12zm38.5 8.25L80.75 39.5H50.5V9.25z" stroke="#B4BDC4" stroke-dasharray="4,2"/>
    <path d="M38.57 62.37v-2.307h2.367v2.308H38.57zm10.266 0v-2.307h2.367v2.308h-2.367zm-3.34 3.41c3.078 0 5.707.622 7.887 1.865 2.18 1.242 3.633 2.546 4.36 3.914l-.013.07-1.36.444c-.835-1.07-2.175-2.002-4.018-2.795-1.844-.794-4.122-1.19-6.832-1.19h-.153c-2.71 0-4.988.394-6.832 1.183-1.844.79-3.22 1.723-4.125 2.8l-1.265-.444v-.07c.726-1.37 2.177-2.673 4.353-3.915 2.176-1.243 4.807-1.864 7.893-1.864h.106z" fill="#34495E" opacity=".303"/>
  </g>
</svg>