<svg width="53" height="58" viewBox="0 0 53 58" xmlns="http://www.w3.org/2000/svg"><g fill-rule="evenodd"><path d="M48.292 57.825c.196 0 .327-.066.457-.198s.13-.33.13-.463c-.13-.925-1.57-9.053-3.53-11.234-2.225-2.445-10.726-4.957-13.015-5.618.262.067 1.047-.396 1.308-.528C40.38 36.81 44.957 29.87 44.957 22.47c0-3.834-1.178-7.667-3.4-10.773-2.16-3.172-5.298-5.55-8.895-6.94-2.027-.792-4.25-1.188-6.408-1.188-3.074 0-6.213.792-8.894 2.312-2.616 1.387-4.904 3.502-6.605 6.013-1.7 2.644-2.746 5.618-3.073 8.724-.393 3.964.523 7.995 2.55 11.432l.785 1.19c-.523-.133-.98-.33-1.373-.596-1.308-.99-1.635-2.71-1.57-4.03V28.02c-.588-1.85-.915-3.7-.915-5.617 0-1.916.326-3.9.98-5.75.065-.198.065-.33-.066-.528-.065-.132-.26-.264-.392-.264-.393-.065-.72-.065-1.112-.065-3.597 0-6.474 2.973-6.474 6.542 0 3.635 2.943 6.543 6.474 6.543h.327c-.065 1.982.72 3.7 2.027 4.692.85.66 1.962.925 3.074.99 2.158 2.578 5.035 4.627 8.305 5.684-2.29.727-9.94 3.305-11.967 5.552-1.962 2.247-3.662 10.838-3.728 11.234-.065.198 0 .33.13.463.132.132.263.198.46.198H48.29v.132zm-30.41-9.318l-1.176-2.577 3.99-3.9.85 14.606h-3.99l-1.57-6.212 1.636-1.19c.26-.132.392-.463.26-.727zm-5.23-15.067c-2.42-3.04-3.86-6.873-3.86-11.037v-.066c.132 0 .198.066.328.066 3.86.86 7.98.463 11.575-1.19 3.205-1.453 5.95-3.832 7.913-6.806.915-1.388 1.44-2.842 2.093-4.296.066.398.13.728.197 1.125.784 3.634 2.68 7.005 5.362 9.516 2.026 1.984 4.577 3.437 7.258 4.297.065 0 .065 0 .13.066-1.307 8.59-8.63 15-17.263 15-4.97 0-9.483-2.114-12.687-5.484l1.635-.133c.327 1.057 1.308 1.85 2.485 1.85h3.466c1.438 0 2.616-1.19 2.616-2.643 0-1.454-1.178-2.644-2.616-2.644h-3.466c-1.308 0-2.354.926-2.55 2.18l-2.616.2zm18.114 23.196l1.373-14.473 3.465 3.965-1.242 2.643c-.13.266-.066.596.196.728l1.634 1.19-1.504 5.948h-3.924z"/><path d="M46.068 15.728c-.327 0-.72 0-1.11.067-.198 0-.328.132-.394.264-.065.13-.13.33-.065.528.653 1.85.98 3.833.98 5.75 0 1.916-.327 3.766-.916 5.616-.065.2-.065.33.066.53.065.13.26.263.392.263.392.066.72.066 1.046.066 3.597 0 6.474-2.973 6.474-6.542 0-3.568-2.943-6.542-6.474-6.542zM7.028 15.002c.327.132.654-.067.72-.397.653-2.05 1.896-4.23 3.53-6.212 4.316-5.22 11.575-7.6 18.965-6.278 3.53.66 6.67 2.115 9.09 4.23 2.354 2.048 4.185 4.956 5.297 8.26.26.727 1.373.33 1.11-.397-1.176-3.502-3.138-6.542-5.688-8.79-2.616-2.312-5.95-3.832-9.678-4.493-7.717-1.388-15.368 1.19-20.01 6.675-1.767 2.115-3.075 4.428-3.73 6.608-.064.397.067.727.394.794z"/></g></svg>