<svg width="54" height="64" viewBox="0 0 54 64" xmlns="http://www.w3.org/2000/svg"><g fill-rule="evenodd"><path d="M11.1 36.7h6.3v2.5h-6.3zM20.8 36.7h22.1v2.5H20.8zM11.1 43.5h20.4V46H11.1zM35 43.5h7.9V46H35zM11.1 50.4h11.3v2.4H11.1zM25.9 50.4h17v2.4h-17z"/><path d="M51.4 13.7c-3.7-3.5-7.3-7.1-11-10.7C39 1.6 37.3.9 35.3.9H9.4C4.5.9.7 4.6.7 9.6v44.7c0 2.5.9 4.7 2.5 6.3 1.6 1.6 3.8 2.5 6.3 2.5h34.8c5.1 0 8.8-3.7 8.8-8.8V18.1c.1-1.7-.5-3.2-1.7-4.4zm-3.6 3.7c.2.2.3.3.3.5h-11c-1.2 0-1.4-.2-1.4-1.4V6.1c.5 0 .8.2 1.2.6 3.6 3.5 7.2 7.1 10.9 10.7zm.2 36.9c0 2.3-1.4 3.7-3.7 3.7H9.5v1.4V58c-1.1 0-2-.3-2.7-1-.6-.6-1-1.6-1-2.7V9.6c0-2.1 1.4-3.5 3.5-3.5h20.9v10.5c0 4.1 2.5 6.6 6.6 6.6h11v31.1h.2z"/><path d="M27.2 29.6c.6-.4.6-.6.6-.8v-.5c0-.6 0-1.2-.2-1.7-.7-1.6-2.5-2.3-4.2-2.8-.5-.1-2.2-.6-2-2.2v-.4l.2-.3c0-.1.1-.1.2-.2.1-.2.2-.2.3-.3.4-.4.6-.9.8-1.5l.2-.5.4-.2c.2-.1.3-.2.4-.4.2-.5.4-1 .4-1.5 0-.2 0-.4-.2-.6l-.4-.4v-.6c0-.7-.2-1.3-.5-1.8-.8-1.1-2.3-1.8-4-1.8-1.7 0-3.2.7-4 1.8-.4.5-.6 1.1-.5 1.8v.6l-.4.4c-.3.3-.3.5-.3.7 0 .6.1 1.1.4 1.5.1.2.2.3.4.4l.4.2.2.5c.2.5.5 1 .8 1.4.1.1.1.2.2.2l.3.3.2.3v.4c.2 1.6-1.5 2.1-2 2.2-1.3.4-3.5 1.2-4.2 2.8-.2.5-.2 1.1-.2 1.7v.5c0 .3.2.5.6.8.3.2.6.4 1 .5 3.3 1.5 7.7 1.8 11.6.8 1.1-.3 2.5-.6 3.4-1.3h.1z"/></g></svg>