<svg width="91" height="69" viewBox="0 0 91 69" xmlns="http://www.w3.org/2000/svg"><g fill="#FFF" fill-rule="evenodd"><path d="M43.185 11.383l-41.85 8.135C.6 19.66.116 20.375.26 21.113l6.836 35.17c.144.74.858 1.22 1.595 1.077l41.85-8.135c.74-.143 1.22-.857 1.077-1.595L44.78 12.46c-.143-.74-.857-1.22-1.595-1.077zM34.29 46.436c.09.46-.328.93-.754 1.013l-22.353 4.344c-.426.082-.845-.224-.934-.685l-.023-.112c-.09-.46.184-.902.61-.985l22.353-4.345c.426-.083.988.196 1.078.656l.022.112zm-24.517-1.76l21.58-4.196c.413-.08.926.196 1.012.64l.033.168c.086.445-.286.893-.7.973l-21.58 4.196c-.41.08-.816-.216-.903-.662l-.032-.167c-.087-.445.177-.872.59-.952zm-1.6-4.252l-.023-.11c-.09-.462.184-.903.61-.986l20.292-3.945c.428-.083.903.213.992.674l.022.11c.09.462-.24.914-.668.997L9.106 41.11c-.426.08-.845-.225-.934-.686zm38.377 3.1l-1.214 1.327c-.088.098-.205.164-.33.188-.03.006-.062.01-.094.01-.162.007-.32-.052-.438-.162L40.85 41.5l-1.407 1.526c-.138.15-.34.22-.544.188-.202-.033-.373-.164-.457-.35l-3.697-8.226c-.1-.22-.06-.478.104-.657.163-.178.415-.243.643-.166l8.544 2.89c.193.066.34.224.392.42.05.198 0 .408-.135.56l-1.417 1.586 3.638 3.4c.243.23.257.608.034.853zm-2.377-17.548c.144.737-.338 1.452-1.076 1.595L7.48 34.495c-.737.143-1.45-.338-1.594-1.076l-1.645-8.46c-.142-.737.34-1.45 1.077-1.594l35.617-6.923c.738-.143 1.452.34 1.595 1.077l1.643 8.46z"/><path d="M90.295 20.86l-23.44-7.617c-.413-.134-.856.092-.99.505l-6.4 19.7c-.135.412.09.856.504.99l23.438 7.616c.413.134.857-.092.99-.505l6.402-19.7c.134-.413-.092-.857-.505-.99zM75.973 36.09c-.084.257-.426.377-.665.3l-12.52-4.068c-.238-.078-.364-.35-.28-.608l.02-.063c.084-.257.346-.403.585-.326l12.52 4.068c.238.078.444.376.36.635l-.02.062zM64.07 28.327l12.087 3.927c.23.075.414.358.333.607l-.03.094c-.082.25-.396.37-.627.296l-12.086-3.927c-.23-.075-.353-.338-.272-.588l.03-.093c.082-.25.335-.39.566-.316zm.382-2.6l.02-.06c.085-.26.346-.406.585-.328l11.366 3.693c.24.078.396.36.312.618l-.02.064c-.084.258-.377.394-.617.316l-11.365-3.693c-.24-.077-.364-.35-.28-.608zm18.536 12.324l-.985.332c-.072.024-.15.024-.22 0-.017-.004-.034-.01-.05-.02-.084-.042-.147-.116-.176-.204l-.884-2.73-1.14.38c-.11.037-.233.015-.326-.058-.093-.073-.142-.188-.133-.305l.436-5.195c.012-.14.105-.258.237-.303.132-.046.278-.008.372.095l3.508 3.856c.08.088.11.21.08.323-.028.114-.112.206-.223.245l-1.16.405.885 2.74c.06.182-.04.378-.222.44zm3.717-9.538c-.135.413-.578.64-.99.505l-19.95-6.482c-.413-.135-.64-.578-.505-.992l1.54-4.737c.134-.414.578-.64.99-.506l19.95 6.48c.412.136.638.58.504.992l-1.54 4.738z" opacity=".701"/><path d="M74.68 47.424l-17.133 5.9c-.302.103-.463.432-.36.734l4.96 14.4c.103.3.432.462.734.358l17.134-5.9c.302-.104.463-.433.36-.735l-4.96-14.398c-.103-.302-.432-.462-.734-.358zm-1.67 15.28c.064.188-.084.41-.258.47l-9.15 3.15c-.176.06-.37-.043-.435-.232l-.016-.045c-.064-.19.025-.39.2-.45l9.15-3.152c.175-.06.43.024.494.213l.015.045zm-10.424.71l8.835-3.043c.17-.058.402.028.465.21l.023.07c.063.18-.067.39-.236.45l-8.835 3.04c-.17.06-.357-.04-.42-.223l-.023-.07c-.063-.18.023-.376.192-.434zm-.925-1.696l-.015-.046c-.065-.188.024-.39.198-.45l8.308-2.86c.176-.06.393.035.458.224l.016.046c.065.188-.047.398-.222.458l-8.308 2.86c-.174.06-.368-.043-.433-.232zm16.337-.966l-.432.63c-.032.047-.077.082-.13.1-.01.004-.024.007-.037.01-.068.01-.138-.004-.194-.043l-1.726-1.213-.502.726c-.05.072-.13.113-.217.112-.088-.002-.168-.047-.214-.12l-2.043-3.244c-.054-.086-.053-.197.005-.282.058-.085.16-.127.26-.108l3.768.71c.085.017.156.075.19.155.033.08.024.17-.023.243l-.503.75 1.732 1.218c.116.08.145.24.065.356zm-2.038-7.245c.103.302-.058.63-.36.735l-14.58 5.02c-.303.105-.632-.055-.736-.357l-1.192-3.464c-.104-.3.056-.63.358-.734l14.58-5.02c.303-.104.633.056.737.358l1.192 3.463z" opacity=".5"/><path d="M23.562 6H8.482C8.214 6 8 6.215 8 6.48v12.675c0 .266.215.482.48.482h15.082c.266 0 .48-.216.48-.482V6.48c0-.265-.214-.48-.48-.48zm-5.455 11.57c0 .167-.176.302-.33.302H9.722c-.153 0-.278-.135-.278-.3v-.04c0-.167.125-.302.278-.302h8.055c.154 0 .33.135.33.3v.04zm-8.394-2.265h7.776c.148 0 .308.13.308.29v.06c0 .16-.16.292-.31.292H9.714c-.15 0-.27-.13-.27-.29v-.06c0-.162.12-.292.27-.292zm-.27-1.584v-.04c0-.165.126-.3.28-.3h7.312c.154 0 .3.135.3.3v.04c0 .167-.146.302-.3.302H9.722c-.153 0-.278-.135-.278-.3zm13.118 3.667l-.51.38c-.037.027-.082.042-.128.042l-.033-.003c-.057-.01-.108-.04-.142-.087l-1.03-1.42-.59.435c-.06.043-.135.054-.203.03-.067-.026-.118-.084-.134-.154l-.728-3.105c-.02-.083.012-.17.08-.22.07-.052.16-.057.235-.015l2.772 1.58c.06.036.102.1.107.172.004.072-.028.142-.085.185l-.6.456 1.035 1.426c.07.095.048.227-.046.297zm.36-6.253c0 .266-.215.48-.48.48H9.603c-.266 0-.48-.214-.48-.48V8.086c0-.266.214-.482.48-.482H22.44c.265 0 .48.216.48.482v3.048zM54.116.707L45.282 8.12c-.156.13-.173.366-.04.526l6.402 7.628c.134.16.37.184.525.054l8.833-7.413c.156-.13.174-.367.04-.527L54.64.76c-.133-.16-.368-.184-.524-.053zm2.65 9.646c.083.1.047.267-.043.343l-4.718 3.96c-.09.075-.23.055-.315-.045l-.02-.023c-.084-.1-.08-.242.01-.318l4.72-3.96c.09-.076.26-.08.345.02l.02.023zm-6.063 2.762l4.555-3.823c.088-.073.247-.073.328.024l.03.036c.08.097.054.253-.034.327l-4.555 3.82c-.087.074-.223.055-.304-.042l-.03-.036c-.082-.096-.077-.234.01-.307zm-.958-.82l-.02-.026c-.084-.1-.08-.243.01-.318l4.285-3.595c.09-.075.243-.066.327.034l.02.025c.084.1.067.253-.023.328l-4.284 3.595c-.09.075-.23.056-.315-.044zm9.536-4.242l-.107.48c-.008.034-.027.065-.053.088l-.02.015c-.038.023-.084.03-.127.018l-1.32-.35-.127.554c-.013.054-.05.098-.104.116-.052.018-.11.01-.156-.025L55.27 7.436c-.053-.04-.078-.108-.064-.172.015-.065.066-.113.13-.124l2.422-.41c.055-.01.11.008.15.05.04.04.056.098.044.152l-.12.568 1.325.35c.09.024.144.114.124.203zm-2.947-3.94c.134.16.117.395-.04.526l-7.517 6.307c-.156.13-.39.107-.525-.053L46.71 9.06c-.133-.16-.116-.396.04-.527l7.52-6.308c.154-.13.39-.107.524.053l1.54 1.834z" opacity=".329"/></g></svg>