<svg width="60" height="50" viewBox="0 0 60 50" xmlns="http://www.w3.org/2000/svg"><path d="M5.384 0C2.414 0 0 2.43 0 5.42v32.665c0 2.99 2.414 5.42 5.384 5.42h17.878l-1.565 3.774c-.504 1.246.405 2.444 1.747 2.444h12.78c1.336 0 2.25-1.198 1.746-2.445l-1.554-3.774h17.878c2.964 0 5.373-2.43 5.373-5.42V5.42C59.663 2.43 57.247 0 54.284 0h-48.9zM7.78 4.152h44.096c2.03 0 3.667 1.65 3.667 3.692V31.52c0 2.042-1.638 3.702-3.667 3.702H7.78c-2.027 0-3.666-1.66-3.666-3.702V7.844c0-2.042 1.64-3.692 3.667-3.692zm4.806 4.827v8.63h34.496V8.98H12.586zm0 11.996v2.587h18.03v-2.587h-18.03zm20.783 0v9.93H47.08v-9.93H33.37zm-20.784 3.67v2.588h18.03v-2.587h-18.03zm0 3.673v2.586h18.03V28.32h-18.03zm17.248 8.855c1.087 0 1.96.88 1.96 1.974-.004 1.093-.873 1.983-1.96 1.983s-1.97-.89-1.97-1.984c0-1.095.883-1.975 1.97-1.975z" fill-rule="evenodd"/></svg>