<svg width="52" height="47" viewBox="0 0 52 47" xmlns="http://www.w3.org/2000/svg"><path d="M43.185.383L1.335 8.518C.6 8.66.116 9.375.26 10.113l6.836 35.17c.144.74.858 1.22 1.595 1.077l41.85-8.135c.74-.143 1.22-.857 1.077-1.595L44.78 1.46C44.637.72 43.923.24 43.185.382zM34.29 35.436c.09.46-.328.93-.754 1.013l-22.353 4.344c-.426.082-.845-.224-.934-.685l-.023-.112c-.09-.46.184-.902.61-.985l22.353-4.345c.426-.083.988.196 1.078.656l.022.112zm-24.517-1.76l21.58-4.196c.413-.08.926.196 1.012.64l.033.168c.086.445-.286.893-.7.973l-21.58 4.196c-.41.08-.816-.216-.903-.662l-.032-.167c-.087-.445.177-.872.59-.952zm-1.6-4.252l-.023-.11c-.09-.462.184-.903.61-.986l20.292-3.945c.428-.083.903.213.992.674l.022.11c.09.462-.24.914-.668.997L9.106 30.11c-.426.08-.845-.225-.934-.686zm38.377 3.1l-1.214 1.327c-.088.098-.205.164-.33.188-.03.006-.062.01-.094.01-.162.007-.32-.052-.438-.162L40.85 30.5l-1.407 1.526c-.138.15-.34.22-.544.188-.202-.033-.373-.164-.457-.35l-3.697-8.226c-.1-.22-.06-.478.104-.657.163-.178.415-.243.643-.166l8.544 2.89c.193.066.34.224.392.42.05.198 0 .408-.135.56l-1.417 1.586 3.638 3.4c.243.23.257.608.034.853zm-2.377-17.548c.144.737-.338 1.452-1.076 1.595L7.48 23.495c-.737.143-1.45-.338-1.594-1.076l-1.645-8.46c-.142-.737.34-1.45 1.077-1.594L40.934 5.44c.738-.143 1.452.34 1.595 1.077l1.643 8.46z" fill-rule="evenodd"/></svg>