<svg width="49" height="60" viewBox="0 0 49 60" xmlns="http://www.w3.org/2000/svg"><path d="M12.934 4.238c-.23-.404-.27-.89-.11-1.325.158-.437.5-.78.936-.938l.463-.168c6.648-2.41 13.925-2.41 20.573 0l.463.168c.434.158.777.5.936.938.16.436.12.92-.11 1.325L31.15 12.88c-4.202 2.13-9.174 2.064-13.318-.18L12.934 4.24zm-5.7 52.134c5.38 2.48 10.752 3.15 17.272 3.15 6.52 0 11.9-.67 17.273-3.15 4.23-1.978 6.932-6.247 6.92-10.938 0-16.258-7.976-24.53-13.996-28.888-3.037 1.868-6.527 2.857-10.087 2.858-.407 0-.814 0-1.233-.043-.185 4.28.677 8.537 2.51 12.402.595 1.233.083 2.717-1.144 3.314-1.226.598-2.703.083-3.297-1.15-1.387-2.88-2.304-5.966-2.715-9.14-.863.976-1.65 2.016-2.356 3.113-.472.748-1.305 1.187-2.186 1.15-.88-.036-1.676-.54-2.085-1.326-.408-.785-.37-1.73.102-2.48 1.652-2.603 3.677-4.95 6.008-6.962-1.334-.478-2.613-1.102-3.812-1.86C8.375 20.762.28 29.034.306 45.385c-.03 4.71 2.677 9.004 6.928 10.987z" fill-rule="evenodd"/></svg>