<svg width="24" height="26" viewBox="0 0 24 26" xmlns="http://www.w3.org/2000/svg"><path d="M20.57 15.593v-6.93C20.57 3.878 16.74 0 12.015 0 7.288 0 3.457 3.878 3.457 8.663v6.93l-3.423 6.93h7.788c.396 1.977 2.122 3.466 4.192 3.466 2.07 0 3.796-1.49 4.192-3.466h7.788l-3.423-6.93zm-8.556 8.663c-1.116 0-2.056-.725-2.41-1.732h4.82c-.354 1.007-1.294 1.732-2.41 1.732zM2.6 20.79l2.568-5.197v-6.93c0-3.827 3.065-6.93 6.846-6.93 3.78 0 6.846 3.103 6.846 6.93v6.93l2.567 5.198H2.6z" fill-rule="evenodd"/></svg>