<svg width="71" height="45" viewBox="0 0 71 45" xmlns="http://www.w3.org/2000/svg"><g stroke="#FF9800" fill="none" fill-rule="evenodd"><path d="M16.11 13.876c-.48 0-.953.027-1.42.072-.177.017-.35.05-.526.073-.29.04-.578.078-.86.133-.202.04-.4.092-.6.14-.253.06-.507.12-.755.194-.2.06-.393.128-.588.195-.247.085-.493.172-.734.27-.18.072-.36.152-.536.233-.25.112-.498.23-.74.357-.158.083-.315.17-.47.258-.254.145-.5.295-.744.453-.138.09-.275.182-.41.276-.248.173-.49.355-.727.544-.12.097-.243.195-.363.297-3.17 2.697-5.193 6.712-5.193 11.195 0 8.098 6.58 14.688 14.665 14.688 8.085 0 14.665-6.59 14.665-14.688 0-8.1-6.58-14.69-14.666-14.69zm0 26.034c-6.247 0-11.33-5.09-11.33-11.346 0-6.257 5.083-11.347 11.33-11.347 6.246 0 11.329 5.09 11.329 11.347-.002 6.256-5.084 11.346-11.33 11.346z"/><path d="M18.892 11.935c-.12.015-.23-.072-.246-.192-.01-.074.025-.134.075-.182.008-.013.008-.03.018-.043l4.1-5.27c.31-.397.753-.664 1.247-.752 1.212-.216 3.932-.644 7.436-.875-1.46-1.8-3.66-2.87-5.986-2.87-1.66 0-3.245.52-4.58 1.507-.58.43-1.1.94-1.54 1.514L8.496 15.493c.104-.06.21-.113.315-.17l.218-.12c.38-.202.768-.392 1.164-.56.017-.008.033-.017.05-.024.4-.17.81-.316 1.225-.45.11-.035.223-.07.337-.103.374-.11.752-.21 1.135-.293.053-.012.105-.027.16-.038.428-.087.862-.15 1.3-.2.114-.012.23-.023.344-.033.453-.04.907-.068 1.364-.068.502 0 .997.027 1.486.075.163.016.322.047.484.068.323.042.645.085.962.148.19.037.372.088.558.132.282.068.564.135.84.218.194.058.383.127.573.192.26.09.518.18.772.284.192.077.378.163.565.248.243.11.483.225.72.347.183.096.363.2.544.302.227.132.452.267.672.41.175.112.346.228.515.348.215.15.424.31.63.47.162.128.323.257.48.39.2.172.392.352.583.533.147.14.295.28.437.425.188.193.366.395.543.598.13.15.262.295.386.448.176.22.34.45.505.68.11.15.22.295.324.45.174.262.332.535.49.81.077.13.16.258.234.393.223.415.43.84.614 1.275l.027.075c.172.412.328.833.463 1.263.048.152.08.308.124.46.087.31.173.618.24.934.04.186.066.376.098.564.04.23.09.457.12.69l1.077-8.6c-3.463-7.163-13.186-6.136-13.285-6.125z"/><path d="M48.767 11.53c-1.86-.195-4.408-.42-7.387-.573l-.21-.01c-.48-.024-.976-.045-1.48-.065-.15-.007-.303-.012-.456-.017-.448-.016-.905-.03-1.367-.042-.167-.004-.33-.01-.5-.013-.612-.013-1.232-.024-1.865-.028h-.015c-.64.004-1.267.014-1.885.028-.162.004-.32.01-.48.012-.47.013-.937.026-1.393.043l-.435.016c-.514.02-1.02.043-1.51.068l-.18.008c-2.984.153-5.535.38-7.397.574 3.27.326 8.07 1.63 10.348 6.278h5.865c2.28-4.646 7.077-5.95 10.347-6.277zM16.11 17.663c-6.002 0-10.885 4.89-10.885 10.9 0 6.012 4.883 10.9 10.884 10.9 6 0 10.884-4.888 10.884-10.9 0-6.01-4.882-10.9-10.885-10.9z"/><path d="M23.19 6.52l-3.81 4.898c1.302-.176 4.84-.61 9.563-.87.023-.003.046-.004.068-.005.437-.024.883-.046 1.338-.067l.325-.014c.383-.017.77-.032 1.165-.046l.427-.014c.383-.013.772-.023 1.165-.032.146-.003.29-.008.437-.01.532-.01 1.07-.018 1.62-.022H35.53c.533.005 1.056.012 1.573.022.157.003.31.008.465.01l1.128.03.464.017c.38.013.754.028 1.122.044l.36.017c.44.02.87.04 1.293.064.036.004.074.005.11.008 4.72.262 8.253.695 9.55.87l-3.81-4.897c-.24-.31-.586-.52-.97-.587-1.63-.29-5.993-.968-11.33-1.02-5.33.052-9.693.73-11.322 1.02-.386.068-.73.277-.973.588zM54.89 17.663c-6 0-10.883 4.89-10.883 10.9 0 6.012 4.882 10.9 10.884 10.9 6.002 0 10.885-4.888 10.885-10.9 0-6.01-4.883-10.9-10.884-10.9z"/><path d="M64.362 17.37c-.12-.1-.242-.2-.364-.297-.237-.19-.48-.37-.727-.545-.134-.094-.27-.185-.408-.275-.243-.158-.492-.31-.744-.453-.156-.09-.313-.176-.472-.26-.242-.126-.49-.243-.74-.356-.177-.08-.354-.16-.535-.234-.24-.097-.485-.184-.733-.27-.195-.066-.39-.134-.587-.193-.248-.074-.502-.135-.755-.195-.2-.048-.398-.1-.598-.14-.283-.055-.572-.093-.86-.13-.177-.025-.35-.057-.527-.074-.468-.046-.94-.073-1.42-.073-8.086 0-14.665 6.59-14.665 14.69 0 8.097 6.58 14.687 14.665 14.687 8.086 0 14.665-6.59 14.665-14.688 0-4.483-2.02-8.497-5.193-11.194zm-9.47 22.54c-6.247 0-11.33-5.09-11.33-11.346 0-6.257 5.083-11.347 11.33-11.347 6.245 0 11.328 5.09 11.328 11.347 0 6.256-5.083 11.346-11.33 11.346z"/><path d="M40.482 24.013c.134-.426.288-.844.458-1.253.012-.028.02-.057.032-.085.184-.435.39-.858.612-1.27.075-.14.16-.27.24-.405.157-.27.313-.54.486-.8.104-.156.217-.303.326-.454.165-.23.328-.457.505-.676.126-.154.258-.3.39-.45.176-.202.353-.404.54-.597.143-.145.29-.284.438-.424.19-.183.384-.363.585-.535.157-.134.316-.262.478-.39.207-.162.416-.32.63-.47.17-.12.34-.236.515-.35.22-.142.446-.28.674-.41.18-.104.358-.205.542-.3.236-.125.477-.238.72-.35.187-.084.374-.17.564-.248.254-.104.513-.195.774-.285.19-.065.378-.134.57-.192.278-.083.56-.15.843-.218.186-.044.37-.095.557-.132.317-.063.64-.105.963-.147.162-.022.32-.052.483-.068.49-.05.985-.076 1.487-.076.458 0 .91.028 1.363.068.116.01.23.022.346.035.436.05.87.112 1.298.2.055.01.11.026.164.038.38.083.756.18 1.128.292.115.035.23.068.343.105.412.134.82.28 1.22.448l.063.03c.39.166.772.354 1.147.553.076.04.152.082.227.123.103.058.21.11.31.17L51.61 4.792c-.464-.6-.983-1.108-1.563-1.537-1.335-.987-2.918-1.508-4.58-1.508-2.325 0-4.527 1.073-5.99 2.872 3.495.232 6.204.66 7.413.874.494.087.936.355 1.245.752l4.104 5.273c.007.01.006.027.012.04.05.047.086.108.076.182-.016.12-.126.208-.246.192-.1-.01-9.784-1.032-13.265 6.084L39.9 26.66c.03-.23.078-.45.117-.678.033-.192.06-.387.1-.576.066-.31.15-.613.235-.916.045-.158.08-.32.13-.477z"/><path d="M16.11 17.217c-6.247 0-11.33 5.09-11.33 11.347 0 6.256 5.083 11.346 11.33 11.346 6.246 0 11.329-5.09 11.329-11.346-.002-6.257-5.084-11.347-11.33-11.347zm0 22.248c-6.002 0-10.885-4.89-10.885-10.9 0-6.01 4.883-10.902 10.884-10.902 6 0 10.884 4.89 10.884 10.902 0 6.01-4.882 10.9-10.885 10.9z" fill="#000" fill-rule="nonzero"/><path d="M65.003 17.352c-.012-.025-.024-.05-.045-.07L51.94 4.497c-.467-.608-1.016-1.147-1.63-1.6-1.412-1.044-3.087-1.595-4.843-1.595-2.566 0-4.997 1.228-6.536 3.284-1.086-.064-2.24-.11-3.445-.12-1.196.01-2.34.055-3.417.118-1.538-2.055-3.97-3.282-6.535-3.282-1.757 0-3.432.55-4.844 1.594-.615.454-1.164.992-1.61 1.578L6.042 17.28c-.02.02-.033.046-.044.07C2.938 20.124 1 24.117 1 28.565c0 8.344 6.778 15.133 15.11 15.133 7.982 0 14.522-6.237 15.057-14.097.006-.017.017-.03.02-.05L32.6 18.256h5.795l1.416 11.296c.003.02.013.034.02.05.535 7.862 7.075 14.097 15.056 14.097 8.332 0 15.11-6.79 15.11-15.133 0-4.448-1.937-8.44-4.997-11.212zM35.485 4.912c5.336.052 9.698.73 11.327 1.02.385.068.73.277.972.588l3.81 4.897c-1.297-.175-4.83-.608-9.55-.87l-.11-.006c-.422-.022-.853-.044-1.293-.064l-.36-.016c-.368-.016-.742-.03-1.12-.044l-.465-.016-1.13-.03c-.154-.004-.307-.008-.463-.01-.517-.01-1.04-.018-1.573-.022h-.045c-.548.003-1.087.01-1.62.02-.147.004-.29.008-.437.01-.392.01-.78.02-1.164.033l-.428.015c-.394.014-.783.03-1.164.046l-.326.015c-.455.02-.9.043-1.337.067l-.068.004c-4.723.263-8.26.696-9.563.87l3.81-4.896c.24-.31.586-.52.97-.588 1.63-.29 5.993-.968 11.325-1.02zM16.11 43.252c-8.087 0-14.666-6.59-14.666-14.688 0-4.484 2.022-8.498 5.193-11.194.12-.1.242-.2.364-.297.238-.19.48-.37.728-.545.135-.094.272-.185.41-.275.243-.158.49-.31.743-.453.157-.09.314-.176.473-.26.242-.126.49-.243.74-.356.177-.08.355-.16.535-.234.24-.097.487-.184.734-.27.195-.066.39-.134.587-.193.247-.074.5-.135.755-.195.2-.048.397-.1.598-.14.283-.055.572-.093.86-.13.176-.025.35-.057.527-.074.467-.046.94-.073 1.42-.073 8.085 0 14.665 6.59 14.665 14.69 0 8.098-6.58 14.687-14.666 14.687zM31.1 26.66c-.028-.232-.08-.458-.12-.688-.03-.188-.057-.378-.096-.564-.068-.316-.153-.624-.24-.933-.043-.153-.077-.31-.124-.46-.136-.43-.29-.852-.463-1.265l-.028-.074c-.186-.436-.392-.86-.614-1.274-.073-.135-.157-.262-.234-.395-.16-.273-.317-.546-.492-.81-.102-.153-.215-.3-.323-.45-.165-.23-.33-.458-.507-.678-.124-.154-.256-.3-.385-.448-.178-.204-.355-.406-.543-.6-.142-.144-.29-.283-.437-.423-.19-.183-.384-.362-.584-.533-.156-.135-.317-.263-.48-.39-.204-.162-.413-.32-.627-.47-.17-.12-.34-.237-.515-.35-.22-.143-.445-.278-.673-.41-.18-.103-.36-.204-.544-.3-.235-.124-.475-.237-.718-.348-.187-.086-.374-.173-.565-.25-.253-.103-.512-.194-.772-.284-.19-.066-.38-.135-.572-.192-.276-.083-.558-.15-.84-.218-.188-.044-.37-.095-.56-.133-.316-.063-.638-.105-.962-.147-.16-.022-.32-.052-.482-.068-.49-.05-.985-.076-1.486-.076-.458 0-.912.03-1.364.07-.116.01-.23.02-.345.034-.437.05-.87.112-1.3.2-.054.01-.106.025-.16.037-.382.082-.76.18-1.135.293-.113.034-.226.067-.338.104-.414.133-.823.28-1.224.45-.017.006-.033.015-.05.022-.397.17-.783.36-1.164.562-.073.04-.146.077-.218.118-.104.058-.212.11-.315.17L19.413 4.77c.44-.575.96-1.084 1.54-1.514 1.336-.986 2.92-1.507 4.58-1.507 2.325 0 4.527 1.07 5.988 2.87-3.505.23-6.224.66-7.436.874-.495.088-.936.356-1.246.753l-4.1 5.27c-.012.013-.01.03-.02.043-.048.048-.083.11-.073.182.016.12.126.208.245.192.1-.01 9.823-1.037 13.288 6.124L31.1 26.66zm1.454-8.85c-2.28-4.65-7.077-5.953-10.347-6.28 1.86-.195 4.413-.42 7.396-.573l.18-.01c.49-.023.997-.045 1.51-.065.144-.006.29-.01.434-.017.456-.016.923-.03 1.394-.042.16-.004.318-.01.48-.012.62-.013 1.246-.023 1.885-.027h.016c.633.004 1.254.014 1.865.028l.5.014c.462.01.92.025 1.368.04l.456.018c.502.02.997.042 1.48.066l.208.01c2.98.152 5.528.377 7.388.574-3.27.325-8.068 1.63-10.348 6.278h-5.864zm7.463 8.172c-.04.227-.09.45-.117.68l-1.083-8.644c3.482-7.116 13.166-6.095 13.265-6.084.12.016.23-.072.246-.192.01-.073-.025-.135-.076-.182-.006-.013-.005-.03-.013-.04l-4.105-5.274c-.31-.398-.75-.665-1.245-.753-1.21-.215-3.918-.64-7.412-.873 1.462-1.8 3.663-2.872 5.99-2.872 1.66 0 3.244.52 4.58 1.508.58.428 1.098.938 1.56 1.537l10.894 10.7c-.102-.06-.207-.112-.31-.17-.075-.042-.15-.082-.227-.122-.375-.2-.757-.387-1.147-.554l-.064-.03c-.4-.167-.807-.313-1.22-.446-.112-.037-.227-.072-.342-.106-.372-.11-.748-.21-1.128-.29-.055-.012-.11-.028-.164-.04-.428-.087-.862-.15-1.298-.2-.115-.012-.23-.023-.346-.033-.452-.04-.906-.068-1.363-.068-.502 0-.998.027-1.487.075-.163.016-.32.047-.483.068-.323.042-.646.085-.963.148-.188.037-.37.088-.557.132-.283.067-.565.134-.842.217-.192.058-.38.127-.57.193-.26.09-.52.18-.774.284-.19.076-.377.163-.564.248-.243.11-.484.225-.72.348-.184.096-.363.198-.543.3-.23.133-.454.27-.675.412-.174.113-.345.228-.514.348-.214.152-.423.31-.63.472-.16.128-.32.256-.477.39-.2.17-.394.35-.585.533-.148.14-.296.28-.437.426-.187.192-.364.394-.54.597-.132.15-.264.295-.39.45-.175.218-.34.447-.504.675-.11.15-.222.298-.326.453-.173.26-.33.532-.487.803-.078.135-.164.265-.24.403-.22.413-.427.837-.61 1.27-.013.03-.02.058-.033.086-.17.41-.324.826-.458 1.253-.05.157-.085.32-.13.478-.084.303-.168.605-.234.916-.04.186-.067.38-.1.572zm14.874 17.27c-8.086 0-14.664-6.59-14.664-14.688 0-8.1 6.578-14.69 14.665-14.69.48 0 .953.028 1.42.074.177.016.35.05.526.073.29.04.578.077.86.133.202.04.4.09.6.14.253.06.507.12.755.194.2.058.393.127.588.194.247.086.493.173.734.27.18.073.36.153.536.234.25.113.498.23.74.357.158.084.315.17.47.26.254.144.5.295.744.453.138.09.275.18.41.275.248.175.49.357.727.545.12.097.243.195.363.297 3.17 2.697 5.193 6.71 5.193 11.194 0 8.1-6.58 14.688-14.665 14.688z" fill="#000" fill-rule="nonzero"/><path d="M54.89 17.217c-6.245 0-11.328 5.09-11.328 11.347 0 6.256 5.083 11.346 11.33 11.346 6.245 0 11.328-5.09 11.328-11.346 0-6.257-5.083-11.347-11.33-11.347zm0 22.248c-6 0-10.883-4.89-10.883-10.9 0-6.01 4.882-10.902 10.884-10.902 6.002 0 10.885 4.89 10.885 10.902 0 6.01-4.883 10.9-10.884 10.9z" fill="#000" fill-rule="nonzero"/></g></svg>
