<svg width="14" height="10" viewBox="0 0 14 10" xmlns="http://www.w3.org/2000/svg"><g fill-rule="nonzero"><path d="M11 6.5H3c-.276 0-.5.224-.5.5s.224.5.5.5h8c.276 0 .5-.224.5-.5s-.224-.5-.5-.5zM9 .5H5c-.276 0-.5.224-.5.5s.224.5.5.5h4c.276 0 .5-.224.5-.5S9.276.5 9 .5zM9 8.5H5c-.276 0-.5.224-.5.5s.224.5.5.5h4c.276 0 .5-.224.5-.5s-.224-.5-.5-.5zM11 2.5H3c-.276 0-.5.224-.5.5s.224.5.5.5h8c.276 0 .5-.224.5-.5s-.224-.5-.5-.5zM13 4.5H1c-.276 0-.5.224-.5.5s.224.5.5.5h12c.276 0 .5-.224.5-.5s-.224-.5-.5-.5z"/></g></svg>