<svg width="31" height="26" viewBox="0 0 31 26" xmlns="http://www.w3.org/2000/svg"><g fill-rule="evenodd"><path d="M25.327.107H5.02C2.033.107-.294 2.503.03 5.24l1.434 12.1c.28 2.353 2.424 4.127 4.99 4.127h8.95l4.168 3.907c1.168 1.096 3.2.524 3.498-.993l.575-2.913c3.04 0 4.975-1.908 5.238-4.127l1.434-12.1c.324-2.738-2.005-5.133-4.99-5.133zm3.246 4.957l-1.434 12.1c-.183 1.53-1.578 2.685-3.247 2.685h-.98c-.424 0-.788.28-.863.663l-.706 3.578c-.045.23-.346.314-.522.15l-3.02-2.832c.887-.333.63-1.56-.33-1.56H6.453c-1.67 0-3.065-1.153-3.246-2.684l-1.434-12.1c-.21-1.78 1.304-3.34 3.246-3.34h20.307c1.943 0 3.457 1.56 3.246 3.34z"/><ellipse cx="9.841" cy="11.299" rx="1.426" ry="1.315"/><ellipse cx="15.173" cy="11.299" rx="1.426" ry="1.315"/><ellipse cx="20.506" cy="11.299" rx="1.426" ry="1.315"/></g></svg>