<svg width="26" height="26" viewBox="0 0 26 26" xmlns="http://www.w3.org/2000/svg"><g fill-rule="evenodd"><path d="M21.293 25.996c-.21 0-.413-.083-.564-.23l-.205-.2-1.84.055c-.695.017-1.263-.526-1.283-1.227l-.027-.99-.936.027h-.037c-.68 0-1.228-.54-1.246-1.227l-.028-.99-.937.028h-.035c-.68 0-1.228-.54-1.247-1.228l-.054-1.976c-.17-.172-.466-.454-.786-.75-.316.183-.676.282-1.044.282-.55 0-1.07-.213-1.465-.6l-.046-.05c-.04-.044-.08-.094-.124-.148-.32.037-.64.056-.96.056-2.233 0-4.33-.875-5.908-2.465-3.255-3.28-3.255-8.615 0-11.894C4.1.876 6.198 0 8.43 0c2.23 0 4.33.876 5.907 2.466 1.92 1.936 2.777 4.655 2.328 7.342.212.332.332.718.343 1.122.01.347-.06.683-.202.988l8.89 8.973c.146.148.23.344.236.55l.063 2.255c.032 1.193-.89 2.19-2.06 2.225l-2.618.075h-.024zm.116-1.834l.202.2 2.278-.067c.276-.008.494-.257.486-.555l-.054-1.932-9.024-9.107c-.12-.122-.2-.28-.226-.452l-.03-.21c-.037-.242.038-.488.203-.67.097-.104.148-.244.144-.393-.005-.146-.062-.28-.162-.38-.195-.195-.278-.475-.22-.745.485-2.27-.195-4.6-1.82-6.238-1.27-1.28-2.96-1.987-4.76-1.987-1.796 0-3.486.706-4.758 1.987-2.627 2.647-2.627 6.955 0 9.602 1.27 1.28 2.96 1.987 4.76 1.987.43 0 .86-.04 1.283-.123.35-.068.704.102.87.42.047.087.03.33.422.4.13.02.278-.01.372-.11l.104-.12c.144-.16.346-.26.56-.272.218-.013.43.06.59.205.016.015.402.362.795.73.863.81 1.033 1 1.043 1.384l.053 1.89 1.373-.04c.217-.005.424.075.58.223.156.148.247.353.253.568l.04 1.44 1.372-.04c.217-.007.424.074.58.222.156.148.247.352.253.568l.042 1.44 1.808-.052c.235 0 .437.082.59.23z"/><path d="M6.957 9.785c-.758 0-1.47-.298-2.007-.838-1.104-1.112-1.104-2.922 0-4.035.536-.54 1.25-.837 2.007-.837.76 0 1.472.297 2.008.837 1.104 1.113 1.103 2.923 0 4.035-.536.54-1.25.838-2.008.838zm0-4.085c-.324 0-.63.127-.86.36-.475.48-.475 1.26 0 1.74.23.232.536.36.86.36.325 0 .63-.128.86-.36.476-.48.476-1.26 0-1.74-.23-.233-.535-.36-.86-.36zM22.085 22.986c-.207 0-.415-.08-.574-.24l-7.183-7.238c-.316-.318-.314-.833.003-1.15.317-.316.83-.315 1.145.003l7.184 7.24c.315.32.314.833-.003 1.15-.158.157-.365.236-.572.236z"/></g></svg>