<svg width="50" height="57" viewBox="0 0 50 57" xmlns="http://www.w3.org/2000/svg"><path d="M48.5 38.087c-3.75-11.308-10-18.437-13-21.387 2.75-.246 6.75 0 9.25 4.18.25.49.75.737 1 .737s.5 0 .5-.246c.5-.245.75-.983.5-1.72-2.75-4.67-7.5-5.654-11.25-5.408L43 3.672c.25-.247.25-.74.25-.985s-.5-.737-.75-.737S38.25.475 33.25.475c-3 0-5.75.492-8.25 1.475-2 .738-4.5 1.23-7 1.23-4.5 0-8-1.23-8-1.23-.5-.246-1 0-1.5.492-.25.49-.25.983 0 1.475L17 15.963c-3.5 2.95-15 13.52-16.75 26.55-.75 4.916.5 11.308 10 13.03 4 .736 7.75.982 11.5 1.228H24c6.75 0 10.75-.983 11.75-1.228H37c2.75 0 8-.492 11-4.425 2.25-3.196 2.5-7.375.5-13.03zM12.75 5.148c1.5.245 3.25.49 5.25.49 2.75 0 5.5-.49 8-1.474 2-.738 4.5-1.23 7.25-1.23s5.5.492 7 .738l-8 11.31C26 17.93 21 15.47 20 14.98l-7.25-9.834zM46 49.396c-2.25 2.95-7 3.44-8.75 3.44H35.5s-4.25 1.23-11.25 1.23h-2c-5-1.72-5.75-7.13-5.75-7.375 0-.738-.75-1.23-1.5-.984-.75 0-1.25.738-1 1.475 0 .246.5 3.934 3.25 6.638-2.25-.245-4.5-.737-6.5-.983C4.5 51.855 2 48.413 3 42.758c1.75-12.29 13.25-22.86 16-25.074 2 .984 7.25 2.704 13.75 0 2 1.72 9.5 9.096 13.75 21.388 1.25 4.426 1.25 8.113-.5 10.326z" fill-rule="evenodd"/></svg>