<svg width="33" height="62" viewBox="0 0 33 62" xmlns="http://www.w3.org/2000/svg"><g stroke="#FF9800" stroke-width="2" fill="none" fill-rule="evenodd" stroke-linecap="round" stroke-linejoin="round"><path d="M5.736 5.284v12.86-.003C5.736 25.244 16.5 31 16.5 31s10.763-5.757 10.763-12.86v.003-12.86H5.736z"/><path d="M1.43 5.284h30.14V1H1.43zM1.43 61h30.14v-4.286H1.43zM5.736 43.858c1.378-1.37 3.283-2.22 5.382-2.22 2.104 0 4.005.848 5.382 2.22 1.38 1.37 3.278 2.218 5.385 2.218 2.1 0 4.003-.85 5.378-2.22v12.858H5.735V43.858z"/><path d="M5.736 43.858c1.378-1.37 3.283-2.22 5.382-2.22 2.104 0 4.005.848 5.382 2.22 1.38 1.37 3.278 2.218 5.385 2.218 2.1 0 4.003-.85 5.378-2.22 0-7.1-10.76-12.858-10.76-12.858S5.735 36.755 5.735 43.858z"/></g></svg>
