<svg width="26" height="26" viewBox="0 0 26 26" xmlns="http://www.w3.org/2000/svg"><g fill-rule="evenodd"><path d="M24.654 10.264l-1.824-.31c-.19-.612-.434-1.204-.733-1.77l1.075-1.502c.456-.64.385-1.515-.174-2.068L21.38 2.996c-.303-.304-.705-.472-1.134-.472-.336 0-.656.103-.928.3l-1.51 1.073c-.585-.31-1.198-.564-1.833-.754L15.67 1.34C15.54.566 14.874 0 14.087 0H11.8c-.787 0-1.454.565-1.585 1.34L9.9 3.187c-.607.19-1.2.44-1.763.744L6.644 2.855c-.272-.195-.597-.298-.934-.298-.43 0-.836.168-1.134.472L2.953 4.645c-.554.554-.63 1.428-.174 2.068L3.864 8.24c-.3.57-.538 1.16-.722 1.775l-1.802.304c-.775.13-1.34.797-1.34 1.584v2.285c0 .786.565 1.453 1.34 1.584l1.846.315c.19.607.44 1.198.744 1.763L2.86 19.34c-.455.64-.385 1.514.174 2.068l1.618 1.618c.304.303.705.472 1.134.472.337 0 .657-.103.928-.3l1.526-1.084c.548.287 1.123.52 1.715.705l.304 1.823c.13.776.797 1.34 1.584 1.34h2.29c.788 0 1.455-.564 1.585-1.34l.31-1.824c.612-.19 1.204-.435 1.768-.734l1.504 1.075c.27.197.597.3.933.3.43 0 .83-.17 1.135-.472l1.617-1.618c.554-.554.63-1.428.174-2.068l-1.074-1.51c.3-.57.55-1.16.733-1.77l1.823-.303c.776-.13 1.34-.798 1.34-1.585V11.85c.012-.788-.553-1.455-1.33-1.586zm-.125 3.87c0 .07-.05.13-.12.142l-2.28.38c-.288.048-.516.26-.586.537-.207.798-.52 1.563-.945 2.274-.147.25-.137.56.032.798l1.34 1.89c.038.053.033.135-.016.184l-1.617 1.616c-.04.038-.077.044-.105.044-.032 0-.06-.01-.08-.028l-1.884-1.34c-.233-.168-.548-.18-.797-.033-.71.423-1.477.737-2.275.944-.282.07-.494.304-.537.586l-.384 2.28c-.01.07-.07.12-.142.12H11.85c-.07 0-.13-.05-.142-.12l-.38-2.28c-.05-.288-.26-.516-.537-.586-.775-.2-1.524-.51-2.225-.912-.114-.065-.244-.098-.37-.098-.145 0-.297.044-.422.136l-1.9 1.35c-.027.018-.054.028-.08.028-.023 0-.066-.005-.104-.043l-1.62-1.617c-.048-.05-.053-.125-.015-.185L5.39 18.33c.168-.24.18-.553.033-.803-.424-.706-.75-1.47-.956-2.27-.076-.276-.304-.487-.586-.536l-2.295-.39c-.07-.01-.12-.07-.12-.14v-2.286c0-.07.05-.13.12-.142l2.263-.38c.288-.048.522-.26.592-.542.2-.798.51-1.57.928-2.28.147-.25.13-.56-.038-.793l-1.35-1.9c-.04-.054-.034-.135.015-.184l1.618-1.617c.038-.038.076-.044.103-.044.032 0 .06.01.08.027L7.67 5.384c.24.168.553.18.803.032.706-.423 1.47-.75 2.27-.955.276-.076.487-.304.536-.586l.39-2.296c.01-.07.07-.12.14-.12h2.286c.07 0 .13.05.142.12l.38 2.263c.048.288.26.52.542.592.82.206 1.602.526 2.33.955.25.147.558.136.797-.033L20.16 4.01c.027-.015.054-.026.08-.026.023 0 .066.006.104.044l1.618 1.617c.048.05.054.125.016.185l-1.34 1.883c-.17.234-.18.548-.033.798.423.712.738 1.478.944 2.275.07.283.303.494.585.538l2.28.385c.07.01.12.07.12.14v2.287h-.006z"/><path d="M12.995 7.382c-3.094 0-5.608 2.513-5.608 5.607 0 3.093 2.514 5.606 5.608 5.606s5.607-2.513 5.607-5.607c0-3.095-2.513-5.608-5.607-5.608zm0 9.75c-2.286 0-4.142-1.858-4.142-4.143 0-2.286 1.856-4.142 4.142-4.142 2.285 0 4.14 1.856 4.14 4.14 0 2.286-1.855 4.143-4.14 4.143z"/></g></svg>