<svg width="30" height="30" viewBox="0 0 30 30" xmlns="http://www.w3.org/2000/svg"><defs><linearGradient x1="66.67%" y1="16.67%" x2="41.67%" y2="75%" id="tG1"><stop stop-color="#37AEE2" offset="0%"/><stop stop-color="#1E96C8" offset="100%"/></linearGradient><linearGradient x1="61.235%" y1="43.69%" x2="74.706%" y2="80.24%" id="tG2"><stop stop-color="#EFF7FC" offset="0%"/><stop stop-color="#FFF" offset="100%"/></linearGradient></defs><g fill="none" fill-rule="evenodd"><circle fill="url(#tG1)" cx="15" cy="15" r="15"/><path d="M12.25 21.875c-.486 0-.403-.183-.57-.646l-1.43-4.704 11-6.526" fill="#C8DAEA"/><path d="M12.25 21.875c.375 0 .54-.172.75-.375l2-1.945-2.495-1.504" fill="#A9C9DD"/><path d="M12.505 18.05l6.045 4.467c.69.38 1.188.184 1.36-.64l2.46-11.595c.252-1.01-.385-1.47-1.045-1.17l-14.45 5.572c-.985.396-.98.946-.178 1.19l3.708 1.16 8.584-5.417c.404-.246.776-.114.47.157" fill="url(#tG2)"/></g></svg>
