<svg width="34px" height="33px" viewBox="0 0 34 33" xmlns="http://www.w3.org/2000/svg">
    <g stroke="none" stroke-width="1" fill-rule="evenodd">
        <g transform="translate(-734.000000, -453.000000)">
            <g transform="translate(734.000000, 453.000000)">
                <path d="M34,28.3057391 L34,31.7826087 C34,32.1891304 33.6673913,32.5217391 33.2608696,32.5217391 L0.739130435,32.5217391 C0.332608696,32.5217391 0,32.1891304 0,31.7826087 L0,28.3057391 C0,26.7491304 0.294173913,26.1105217 1.47826087,25.437913 C2.43026087,24.8968696 8.82226087,21.2233913 11.826087,19.9328696 L11.826087,14.3642609 C10.9036522,13.6931304 10.3478261,12.6524348 10.3478261,11.0633043 L10.3478261,6.65217391 C10.3478261,2.99347826 12.5652174,0 17,0 C21.4347826,0 23.6521739,2.99347826 23.6521739,6.65217391 L23.6521739,11.0633043 C23.6521739,12.6361739 23.0963478,13.6753913 22.173913,14.3494783 L22.173913,19.9328696 C25.3625217,21.2233913 31.5697391,24.8953913 32.5217391,25.437913 C33.7058261,26.1105217 34,26.7506087 34,28.3057391 L34,28.3057391 Z"></path>
            </g>
        </g>
    </g>
</svg>