<svg width="29" height="29" viewBox="0 0 29 29" xmlns="http://www.w3.org/2000/svg"><g fill="none" fill-rule="evenodd"><rect fill="#7B519D" width="29" height="29" rx="6"/><g fill="#FFF"><path d="M23.898 19.567c-.69-.556-1.43-1.056-2.156-1.566-1.45-1.017-2.776-1.096-3.857.542-.608.92-1.458.96-2.347.557-2.45-1.113-4.343-2.825-5.452-5.316-.49-1.102-.484-2.09.664-2.87.607-.412 1.22-.9 1.17-1.8-.064-1.175-2.915-5.1-4.04-5.514-.467-.172-.93-.16-1.406 0-2.64.887-3.734 3.058-2.686 5.63 3.124 7.67 8.624 13.012 16.194 16.272.43.185.91.26 1.154.326 1.723.017 3.742-1.643 4.325-3.29.562-1.586-.624-2.216-1.562-2.97zM15.41 4.387c5.534.85 8.086 3.482 8.79 9.056.066.515-.126 1.29.61 1.304.767.014.582-.75.588-1.264.065-5.25-4.512-10.117-9.828-10.296-.4.058-1.23-.277-1.283.622-.035.605.664.506 1.123.576z"/><path d="M16.492 5.915c-.532-.065-1.235-.315-1.36.423-.13.775.654.697 1.157.81 3.417.763 4.608 2.007 5.17 5.398.082.494-.08 1.263.76 1.136.622-.095.397-.754.45-1.14.027-3.255-2.763-6.217-6.178-6.627z"/><path d="M16.806 8.576c-.355.01-.704.048-.835.427-.195.568.218.703.638.77 1.402.226 2.14 1.052 2.28 2.45.038.38.28.688.645.644.508-.06.554-.512.54-.942.024-1.57-1.752-3.386-3.267-3.35z"/></g></g></svg>