<svg width="55" height="52" viewBox="0 0 55 52" xmlns="http://www.w3.org/2000/svg"><g fill-rule="evenodd"><path d="M3 43.99C3 46.76 5.237 49 7.997 49h39.006C49.757 49 52 46.755 52 43.99V21.01c0-2.77-2.237-5.01-4.997-5.01H7.997C5.243 16 3 18.245 3 21.01v22.98zM7.997 13h39.006C51.42 13 55 16.582 55 21.01v22.98c0 4.424-3.587 8.01-7.997 8.01H7.997C3.58 52 0 48.418 0 43.99V21.01C0 16.586 3.587 13 7.997 13z"/><path d="M36.505 3.755l-.248.08c.09-.02.282-.057.553-.094.92-.125 1.888-.145 2.757 0 1.763.295 2.633 1.12 2.633 2.966v6.757h3V6.706C45.2 3.24 43.155 1.3 40.062.78 38.852.58 37.6.607 36.404.77c-.36.048-.634.098-.802.136l-.127.028-.12.05L5.19 13.52l1.15 2.77L36.506 3.754zM45.693 33.268c.83 0 1.5-.672 1.5-1.5 0-.83-.67-1.5-1.5-1.5H38.79c-.83 0-1.5.67-1.5 1.5 0 .828.67 1.5 1.5 1.5h6.903z"/></g></svg>