<svg width="18" height="17" viewBox="0 0 18 17" xmlns="http://www.w3.org/2000/svg"><g fill-rule="evenodd"><path d="M9 11.275c-.503 0-.925.41-.925.9 0 .49.422.9.925.9.484 0 .925-.41.903-.88.022-.514-.396-.92-.903-.92z"/><path d="M17.57 11.354l-5.795-9.758C11.2.614 10.165.03 9.003.03c-1.16 0-2.197.588-2.77 1.563L.43 11.36c-.577.984-.573 2.153.01 3.128.578.964 1.61 1.543 2.765 1.543H14.78c1.158 0 2.197-.585 2.782-1.567.58-.975.585-2.137.007-3.11zm-1.266 2.403c-.322.54-.892.86-1.528.86H3.202c-.63 0-1.196-.313-1.51-.842-.318-.536-.322-1.176-.004-1.716L7.49 2.293c.315-.536.877-.852 1.513-.852.633 0 1.2.32 1.514.856l5.798 9.765c.31.525.307 1.158-.01 1.694z"/><path d="M8.77 4.96c-.44.123-.714.51-.714.983.022.284.04.572.063.856.062 1.082.125 2.143.188 3.226.022.367.314.634.692.634.377 0 .673-.285.692-.655 0-.223 0-.428.022-.655.04-.694.085-1.39.126-2.083.022-.45.063-.9.085-1.35 0-.16-.022-.305-.085-.45-.19-.402-.63-.607-1.07-.506z"/></g></svg>