<svg width="29" height="29" viewBox="0 0 29 29" xmlns="http://www.w3.org/2000/svg"><g fill="none" fill-rule="evenodd"><path d="M14.562 3.12c-6.21 0-11.26 5.05-11.264 11.257 0 2.533.742 4.43 1.99 6.417l-1.14 4.154L8.41 23.83c1.908 1.134 3.73 1.813 6.14 1.813 6.206 0 11.26-5.05 11.263-11.257.005-6.22-5.026-11.263-11.25-11.265h-.002z" fill="#FFF"/><path d="M21.183 19.218c-.282.79-1.635 1.512-2.284 1.61-.584.087-1.322.123-2.133-.134-.492-.155-1.122-.363-1.93-.712-3.393-1.466-5.61-4.884-5.78-5.11-.17-.225-1.382-1.834-1.382-3.5S8.55 8.888 8.86 8.548c.31-.34.676-.427.9-.427l.65.013c.21.01.487-.08.762.58.282.68.96 2.345 1.044 2.514.084.17.142.367.027.593-.112.225-.17.367-.338.563l-.507.593c-.17.17-.345.352-.15.69.2.34.877 1.447 1.884 2.344 1.293 1.153 2.383 1.51 2.72 1.68.34.17.537.14.734-.086.198-.225.846-.987 1.07-1.327.227-.34.452-.282.763-.17.31.113 1.974.932 2.312 1.102.338.17.564.254.65.394.083.145.083.823-.2 1.614zm-6.627 8.713c-2.267 0-4.5-.568-6.478-1.648l-7.18 1.885L2.82 21.15c-1.185-2.055-1.81-4.385-1.807-6.773C1.016 6.907 7.09.833 14.556.833c3.624.002 7.025 1.413 9.582 3.972 2.558 2.56 3.965 5.964 3.964 9.582-.004 7.47-6.08 13.544-13.546 13.544zm.006-24.81c-6.21 0-11.26 5.05-11.264 11.257 0 2.533.742 4.43 1.99 6.417l-1.14 4.154L8.41 23.83c1.908 1.134 3.73 1.813 6.14 1.813 6.206 0 11.26-5.05 11.263-11.257.005-6.22-5.026-11.263-11.25-11.265h-.002z" fill="#00E676"/></g></svg>