<svg width="100px" height="100px" viewBox="0 0 100 100" xmlns="http://www.w3.org/2000/svg">
    <g stroke="none" stroke-width="1" fill-rule="evenodd">
        <g transform="translate(-952.000000, -435.000000)">
            <g transform="translate(952.000000, 435.000000)">
                <circle cx="50" cy="50" r="50"></circle>
                <g transform="translate(23.000000, 23.000000)" fill="#FFFFFF">
                    <path d="M55,26.7917222 C55,41.5885556 42.9128333,53.5834444 27.9998889,53.5834444 C23.2656111,53.5834444 18.8179444,52.3734444 14.9483889,50.2498333 L0,55 L4.87361111,40.6254444 C2.41511111,36.5884444 0.999166667,31.8535556 0.999166667,26.7917222 C0.999166667,11.9948889 13.0875556,0 27.9998889,0 C42.9140556,0 55,11.9948889 55,26.7917222 L55,26.7917222 Z M27.9998889,4.26677778 C15.4818889,4.26677778 5.29955556,14.3715 5.29955556,26.7917222 C5.29955556,31.7203333 6.90616667,36.2847222 9.62377778,39.9978333 L6.78761111,48.3633333 L15.5112222,45.5907222 C19.0953889,47.9441111 23.3890556,49.3166667 28.0005,49.3166667 C40.5166667,49.3166667 50.7008333,39.2131667 50.7008333,26.7929444 C50.7008333,14.3727222 40.5172778,4.26677778 27.9998889,4.26677778 L27.9998889,4.26677778 Z M41.6343889,32.9621111 C41.4675556,32.6889444 41.0269444,32.5239444 40.3657222,32.1957778 C39.7032778,31.8676111 36.4485,30.2781111 35.8435,30.0599444 C35.2366667,29.8411667 34.7942222,29.7311667 34.3536111,30.3881111 C33.913,31.0456667 32.6443333,32.5239444 32.2575,32.9621111 C31.8712778,33.4015 31.4856667,33.4565 30.8232222,33.1277222 C30.162,32.7995556 28.0298333,32.1053333 25.5016667,29.8686667 C23.5345,28.1282222 22.2059444,25.9795556 21.8197222,25.3213889 C21.4341111,24.6644444 21.7793889,24.3093889 22.11,23.9824444 C22.4082222,23.6878889 22.7724444,23.2155 23.1030556,22.8323333 C23.4348889,22.4485556 23.5448889,22.1753889 23.7642778,21.7366111 C23.9861111,21.2984444 23.8755,20.9152778 23.7092778,20.5858889 C23.5442778,20.2577222 22.2193889,17.0261667 21.6681667,15.7110556 C21.1169444,14.3971667 20.5663333,14.6159444 20.1795,14.6159444 C19.7938889,14.6159444 19.3520556,14.5609444 18.9108333,14.5609444 C18.4696111,14.5609444 17.7521667,14.7253333 17.1453333,15.3822778 C16.5391111,16.0398333 14.8298333,17.6287222 14.8298333,20.8596667 C14.8298333,24.0912222 17.2003333,27.2133889 17.5321667,27.6509444 C17.8627778,28.0885 22.1093889,34.9353889 28.8377222,37.565 C35.5666667,40.1933889 35.5666667,39.3164444 36.7803333,39.2064444 C37.9927778,39.0970556 40.6951111,37.6181667 41.2487778,36.0855 C41.7987778,34.5503889 41.7987778,33.2358889 41.6343889,32.9621111 L41.6343889,32.9621111 Z"></path>
                </g>
            </g>
        </g>
    </g>
</svg>