<?xml version="1.0" encoding="UTF-8" standalone="no"?>
<svg width="370px" height="326px" viewBox="0 0 370 326" version="1.1" xmlns="http://www.w3.org/2000/svg" xmlns:xlink="http://www.w3.org/1999/xlink">
    <g stroke="none" stroke-width="1" fill="none" fill-rule="evenodd">
        <g transform="translate(-6.000000, 0.000000)" fill="#BE2020">
            <path d="M141.558124,22.1882434 C141.558124,8.92915931 152.248146,-0.817932397 165.453086,0.419203169 L169.105037,0.761344735 C182.301861,1.9977199 193,13.7529053 193,26.9975586 L193,38.0024414 C193,51.2559271 182.263071,62.5321714 169.029845,63.1880708 L165.528278,63.3616246 C152.289927,64.017778 141.558124,53.8125814 141.558124,40.5419999 L141.558124,22.1882434 Z"></path>
            <path d="M136.42159,81.6364051 C136.42159,75.5636432 141.349649,70.6406969 147.420696,70.6406969 L153.714305,70.6406969 C159.788943,70.6406969 164.76562,75.5662803 164.830051,81.6449228 L166.159237,207.044491 C166.223656,213.121957 161.412827,217.231589 155.434467,216.227057 L147.263,214.854023 C141.275455,213.847948 136.42159,208.110264 136.42159,202.036655 L136.42159,81.6364051 Z" transform="translate(151.290733, 143.509431) rotate(-14.000000) translate(-151.290733, -143.509431) "></path>
            <rect transform="translate(219.579770, 236.531963) rotate(30.000000) translate(-219.579770, -236.531963) " x="152.386324" y="226.908544" width="134.386893" height="19.2468399" rx="100"></rect>
            <rect transform="translate(42.629737, 134.485480) rotate(30.000000) translate(-42.629737, -134.485480) " x="13.3155872" y="124.451707" width="58.6282995" height="20.0675456" rx="100"></rect>
            <rect x="136" y="187" width="35" height="137" rx="100"></rect>
            <rect transform="translate(107.768294, 180.997543) rotate(-61.000000) translate(-107.768294, -180.997543) " x="86.7161035" y="117.470516" width="42.1043817" height="127.054054" rx="100"></rect>
            <path d="M76.4061604,68.6755817 C76.5899572,53.412565 88.8435725,43.6335081 103.751191,46.8282638 L103.514818,46.7776082 C118.433265,49.9746844 130.527055,64.9462059 130.527055,80.2047192 L130.527055,154.039903 C130.527055,169.304111 118.310791,183.622832 103.241843,186.021571 L102.224042,186.183589 C87.1548358,188.582369 75.0876733,178.166594 75.2716236,162.890828 L76.4061604,68.6755817 Z" transform="translate(102.898302, 116.375323) rotate(29.000000) translate(-102.898302, -116.375323) "></path>
            <path d="M22.1470574,57.9746035 C22.1470574,51.0672406 27.7521219,45.4677166 34.6418641,45.4677166 L39.266686,45.4677166 C46.1673772,45.4677166 51.7614927,51.0571469 51.7614927,57.9584299 L51.7614926,124.53324 C51.7614926,131.43167 46.2086235,136.346707 39.3524639,135.510509 L34.5560862,134.925527 C27.7027688,134.089675 22.1470574,127.810561 22.1470574,120.905196 L22.1470574,57.9746035 Z" transform="translate(36.954275, 90.535456) rotate(32.000000) translate(-36.954275, -90.535456) "></path>
            <path d="M42,60.5520086 C42,53.6458463 47.5992086,47.9982717 54.5072201,47.9377885 L119.273412,47.370728 C126.180959,47.3102489 132.594169,52.8023466 133.597574,59.6367009 L134.183058,63.62452 C135.186527,70.4593089 130.401377,76 123.493241,76 L54.5067585,76 C47.5994665,76 42,70.4105353 42,63.495287 L42,60.5520086 Z"></path>
            <path d="M80.9043715,251.771975 C80.4684212,252.723146 79.9406233,253.648578 79.3188815,254.536518 L37.8369451,313.778863 C32.2948022,321.693863 21.3856784,323.617476 13.466847,318.072651 C5.54975631,312.529044 3.62035334,301.624582 9.16662352,293.703687 L50.64856,234.461342 C51.0141689,233.939199 51.4031343,233.443129 51.813057,232.973557 C53.3210575,230.391622 58.0676651,221.187662 56.4536609,210.034133 C54.0918593,193.712972 52.4510903,182.305989 52.4510903,182.305989 L88.1494389,202.532443 C88.1494389,202.532443 96.7232327,229.347981 80.9043715,251.771975 Z"></path>
            <path d="M306.778912,206.483161 L375.828591,325.509345 L180.610697,325.896478 C180.610697,325.896478 185.525608,286.640997 215.353465,279.339503 C245.181322,272.038009 252.096569,262.291468 252.096569,262.291468 C252.096569,262.291468 276.153752,227.690442 284.295066,221.40595 C292.43638,215.121458 306.778912,206.483161 306.778912,206.483161 Z"></path>
        </g>
    </g>
</svg>