<svg width="249" height="251" viewBox="0 0 249 251" xmlns="http://www.w3.org/2000/svg" xmlns:xlink="http://www.w3.org/1999/xlink"><defs><rect id="path-1" width="183" height="224" rx="1"/><filter x="-14.5%" y="-6%" width="129%" height="124.1%" filterUnits="objectBoundingBox" id="filter-2"><feOffset dy="14" in="SourceAlpha" result="shadowOffsetOuter1"/><feGaussianBlur stdDeviation="6.5" in="shadowOffsetOuter1" result="shadowBlurOuter1"/><feColorMatrix values="0 0 0 0 0.558415873 0 0 0 0 0.639638107 0 0 0 0 0.659943665 0 0 0 0.875651042 0" in="shadowBlurOuter1"/></filter><rect id="path-3" x="123" y="64" width="46" height="36" rx="1"/><filter x="-8.7%" y="-5.6%" width="117.4%" height="122.2%" filterUnits="objectBoundingBox" id="filter-4"><feOffset dy="2" in="SourceAlpha" result="shadowOffsetOuter1"/><feGaussianBlur stdDeviation="1" in="shadowOffsetOuter1" result="shadowBlurOuter1"/><feColorMatrix values="0 0 0 0 0.558415873 0 0 0 0 0.639638107 0 0 0 0 0.659943665 0 0 0 0.430027174 0" in="shadowBlurOuter1"/></filter><linearGradient x1="-3.507%" y1="-41.367%" x2="96.679%" y2="106.51%" id="linearGradient-5"><stop stop-color="#1F79DF" offset="0%"/><stop stop-color="#014693" offset="100%"/></linearGradient><rect id="rect-price" x="80" y="120" width="145" height="73" rx="3"/><filter x="-13.8%" y="-17.8%" width="127.6%" height="154.8%" filterUnits="objectBoundingBox" id="filter-7"><feOffset dy="7" in="SourceAlpha" result="shadowOffsetOuter1"/><feGaussianBlur stdDeviation="5.5" in="shadowOffsetOuter1" result="shadowBlurOuter1"/><feColorMatrix values="0 0 0 0 0.201336167 0 0 0 0 0.35874515 0 0 0 0 0.506191539 0 0 0 0.54186481 0" in="shadowBlurOuter1"/></filter></defs><g fill="none" fill-rule="evenodd"><g transform="translate(13)"><use fill="#000" filter="url(#filter-2)" xlink:href="#path-1"/><use fill="#FFF" xlink:href="#path-1"/><rect fill="#1B72D4" x="9" y="9" width="164" height="73" rx="1"/><use fill="#000" filter="url(#filter-4)" xlink:href="#path-3"/><use fill="#FFF" xlink:href="#path-3"/><path fill="#505F6E" fill-rule="nonzero" d="M20 155h135v-4H20"/><path fill="#ECF0F1" fill-rule="nonzero" d="M19 109h92v-9H19"/><path fill="#FFF" fill-rule="nonzero" d="M21 60h64v-9H21M21 65h55v-4H21"/><path fill="#FFF3E0" fill-rule="nonzero" d="M23 18h55V9H23"/><path fill="#505F6E" fill-rule="nonzero" d="M135 91h20v-4h-20M20 168h116v-4H20M20 183h144v-4H20"/><path fill="#ECF0F1" fill-rule="nonzero" d="M132 82h28v-9h-28M19 205h55v-9H19M78 205h55v-9H78M19 128h55v-9H19"/></g><g transform="translate(13)"><use fill="#000" filter="url(#filter-7)" xlink:href="#rect-price"/><use fill="url(#linearGradient-5)" xlink:href="#rect-price"/></g><path d="M116.383 156.648l1.875-18.773h16.594v2.602h-14.18l-1.266 12.28c.86-.765 1.81-1.366 2.848-1.804 1.04-.437 2.433-.68 4.183-.726 2.922-.047 5.27.914 7.043 2.882 1.774 1.968 2.66 4.64 2.66 8.015 0 3.453-.867 6.21-2.6 8.273-1.735 2.063-4.337 3.094-7.806 3.094-2.812 0-5.156-.785-7.03-2.355-1.876-1.57-2.774-3.895-2.696-6.973l.047-.14h2.53c0 2.296.65 4.054 1.946 5.273 1.298 1.22 3.032 1.828 5.204 1.828 2.547 0 4.45-.766 5.707-2.297 1.26-1.53 1.888-3.75 1.888-6.656 0-2.547-.63-4.57-1.887-6.07-1.256-1.5-3.026-2.25-5.307-2.25-2.172 0-3.832.347-4.98 1.043-1.15.695-1.98 1.746-2.497 3.152l-2.273-.4zm46.125 3.305c0 3.89-.942 6.953-2.824 9.188-1.883 2.235-4.465 3.352-7.746 3.352-3.282 0-5.875-1.12-7.782-3.363-1.906-2.243-2.86-5.302-2.86-9.177v-10.03c0-3.86.946-6.915 2.837-9.165 1.89-2.25 4.476-3.375 7.758-3.375s5.872 1.125 7.77 3.375c1.9 2.25 2.848 5.304 2.848 9.164v10.03zm-2.813-10.476c0-2.985-.675-5.348-2.027-7.09s-3.277-2.614-5.777-2.614-4.425.875-5.777 2.625c-1.35 1.75-2.027 4.11-2.027 7.08v10.897c0 2.953.684 5.316 2.05 7.09 1.368 1.773 3.3 2.66 5.802 2.66 2.484 0 4.398-.883 5.742-2.648 1.343-1.766 2.015-4.133 2.015-7.102v-10.898zm39.797-.446h-9.234V172h-2.813v-22.97h-8.882v-2.39h20.93v2.39zm21.047.025h-12.845V172h-2.812v-25.36h15.656v2.415z" fill="#FFF"/></g></svg>
