<svg width="242" height="283" viewBox="0 0 242 283" xmlns="http://www.w3.org/2000/svg" xmlns:xlink="http://www.w3.org/1999/xlink"><defs><rect id="b" width="182" height="223" rx="1"/><filter x="-30.8%" y="-15.2%" width="161.5%" height="150.2%" filterUnits="objectBoundingBox" id="a"><feOffset dy="22" in="SourceAlpha" result="shadowOffsetOuter1"/><feGaussianBlur stdDeviation="15" in="shadowOffsetOuter1" result="shadowBlurOuter1"/><feColorMatrix values="0 0 0 0 0.669858299 0 0 0 0 0.815586943 0 0 0 0 0.893308886 0 0 0 1 0" in="shadowBlurOuter1"/></filter><rect id="d" x="123" y="64" width="46" height="37" rx="1"/><filter x="-8.7%" y="-5.4%" width="117.4%" height="121.6%" filterUnits="objectBoundingBox" id="c"><feOffset dy="2" in="SourceAlpha" result="shadowOffsetOuter1"/><feGaussianBlur stdDeviation="1" in="shadowOffsetOuter1" result="shadowBlurOuter1"/><feColorMatrix values="0 0 0 0 0.558415873 0 0 0 0 0.639638107 0 0 0 0 0.659943665 0 0 0 0.430027174 0" in="shadowBlurOuter1"/></filter><linearGradient x1="-3.507%" y1="-41.367%" x2="96.679%" y2="106.51%" id="g"><stop stop-color="#2EB1AB" offset="0%"/><stop stop-color="#1C978F" offset="39.235%"/><stop stop-color="#006F65" offset="100%"/></linearGradient><circle id="f" cx="170" cy="174" r="29"/><filter x="-31.9%" y="-19.8%" width="163.8%" height="163.8%" filterUnits="objectBoundingBox" id="e"><feOffset dy="7" in="SourceAlpha" result="shadowOffsetOuter1"/><feGaussianBlur stdDeviation="5" in="shadowOffsetOuter1" result="shadowBlurOuter1"/><feColorMatrix values="0 0 0 0 0.164455378 0 0 0 0 0.198554866 0 0 0 0 0.465667517 0 0 0 0.506170743 0" in="shadowBlurOuter1"/></filter></defs><g fill="none" fill-rule="evenodd"><g transform="translate(30 8)"><use fill="#000" filter="url(#a)" xlink:href="#b"/><use fill="#FFF" xlink:href="#b"/><rect fill="#335E89" x="9" y="9" width="164" height="73" rx="1"/><use fill="#000" filter="url(#c)" xlink:href="#d"/><use fill="#FFF3E0" xlink:href="#d"/><path fill="#505F6E" fill-rule="nonzero" d="M21 155h134v-5H21"/><path fill="#ECF0F1" fill-rule="nonzero" d="M18 109h91v-9H18"/><path d="M54 55.333h54" stroke="#FFF" stroke-width="2" stroke-linecap="square"/><path d="M53 63.5h49.55" stroke="#FFF" opacity=".64" stroke-linecap="square"/><path fill="#FFF3E0" fill-rule="nonzero" d="M22 18h54V9H22"/><path fill="#505F6E" fill-rule="nonzero" d="M132 91h21v-5h-21M132 83h21v-5h-21M132 73h30v-5h-30M21 169h116v-5H21M21 182h144v-5H21"/><path fill="#ECF0F1" fill-rule="nonzero" d="M18 205h54v-9H18M77 205h54v-9H77M18 127h54v-9H18"/></g><g transform="translate(30 8)"><use fill="#000" filter="url(#e)" xlink:href="#f"/><use fill="url(#g)" xlink:href="#f"/></g><path fill="#FFF" d="M201.766 179.656h10.382v2.625h-10.382v11.298h-2.836V182.28h-10.172v-2.624h10.172v-10.922h2.836"/></g></svg>
