<svg width="273" height="281" viewBox="0 0 273 281" xmlns="http://www.w3.org/2000/svg" xmlns:xlink="http://www.w3.org/1999/xlink"><defs><filter x="-25.9%" y="-15.4%" width="152.3%" height="152%" filterUnits="objectBoundingBox" id="filter-1"><feOffset dy="22" in="SourceAlpha" result="shadowOffsetOuter1"/><feGaussianBlur stdDeviation="15" in="shadowOffsetOuter1" result="shadowBlurOuter1"/><feColorMatrix values="0 0 0 0 0.669858299 0 0 0 0 0.815586943 0 0 0 0 0.893308886 0 0 0 1 0" in="shadowBlurOuter1" result="shadowMatrixOuter1"/><feMerge><feMergeNode in="shadowMatrixOuter1"/><feMergeNode in="SourceGraphic"/></feMerge></filter><rect id="path-2" width="160" height="197" rx="1"/><filter x="-16.6%" y="-6.9%" width="133.1%" height="127.4%" filterUnits="objectBoundingBox" id="filter-3"><feOffset dy="14" in="SourceAlpha" result="shadowOffsetOuter1"/><feGaussianBlur stdDeviation="6.5" in="shadowOffsetOuter1" result="shadowBlurOuter1"/><feColorMatrix values="0 0 0 0 0.558415873 0 0 0 0 0.639638107 0 0 0 0 0.659943665 0 0 0 0.875651042 0" in="shadowBlurOuter1"/></filter><rect id="path-4" x="106.667" y="56.763" width="40" height="33.39" rx="1"/><filter y="-6%" height="124%" filterUnits="objectBoundingBox" id="filter-5"><feOffset dy="2" in="SourceAlpha" result="shadowOffsetOuter1"/><feGaussianBlur stdDeviation="1" in="shadowOffsetOuter1" result="shadowBlurOuter1"/><feColorMatrix values="0 0 0 0 0.558415873 0 0 0 0 0.639638107 0 0 0 0 0.659943665 0 0 0 0.430027174 0" in="shadowBlurOuter1"/></filter><linearGradient x1="50%" y1="0%" x2="50%" y2="100%" id="linearGradient-6"><stop stop-color="#FFF" offset="0%"/><stop stop-color="#576261" offset="100%"/></linearGradient></defs><g id="31.-Компания-2.0" fill="none" fill-rule="evenodd"><g id="31.2-Лендинг"><g id="Group-4"><g id="Group-2" filter="url(#filter-1)" transform="translate(30 8)"><path d="M110.55 14.76L213 96.705V197L3.59 172.395 0 96.59l103.07-81.843c2.19-1.74 5.294-1.735 7.48.013z" id="Rectangle-3-Copy" fill="#CCD7D7"/><g id="Group-10-Copy-12" transform="translate(27)"><g id="Rectangle-8"><use fill="#000" filter="url(#filter-3)" xlink:href="#path-2"/><use fill="#FFF" xlink:href="#path-2"/></g><rect id="Rectangle-9" fill="#335E89" x="6.667" y="6.678" width="143.333" height="63.441" rx="1"/><g id="Rectangle-8"><use fill="#000" filter="url(#filter-5)" xlink:href="#path-4"/><use fill="#FFF3E0" xlink:href="#path-4"/></g><path id="Line-Copy-18" fill="#505F6E" fill-rule="nonzero" d="M20 136.898h116.667v-3.34H20z"/><path id="Line-Copy-14" fill="#ECF0F1" fill-rule="nonzero" d="M16.667 93.492h80v-6.678h-80z"/><path d="M46.667 48.972h46.666" id="Line-Copy-3" stroke="#FFF" stroke-width="2" stroke-linecap="square"/><path d="M46.667 56.763H89.49" id="Line-Copy-44" stroke="#FFF" opacity=".64" stroke-linecap="square"/><path id="Line-Copy-45" fill="#FFF3E0" fill-rule="nonzero" d="M20 13.356h46.667V6.678H20z"/><path id="Line-Copy-18" fill="#505F6E" fill-rule="nonzero" d="M116.667 80.136h20v-3.34h-20z"/><path id="Line-Copy-49" fill="#505F6E" fill-rule="nonzero" d="M116.667 73.458h20v-3.34h-20z"/><path id="Line-Copy-50" fill="#505F6E" fill-rule="nonzero" d="M116.667 63.44h26.666v-3.338h-26.666z"/><path id="Line-Copy-19" fill="#505F6E" fill-rule="nonzero" d="M20 146.915h103.333v-3.34H20z"/><path id="Line-Copy-20" fill="#505F6E" fill-rule="nonzero" d="M20 160.27h126.667v-3.338H20z"/><path id="Line-Copy-21" fill="#ECF0F1" fill-rule="nonzero" d="M16.667 180.305h46.666v-6.678H16.667z"/><path id="Line-Copy-22" fill="#ECF0F1" fill-rule="nonzero" d="M66.667 180.305h46.666v-6.678H66.667z"/><path id="Line-Copy-16" fill="#ECF0F1" fill-rule="nonzero" d="M16.667 110.186h46.666v-6.678H16.667z"/></g><path id="Rectangle-5" fill="url(#linearGradient-6)" opacity=".443" d="M27 104h160v64H27z"/><path id="Rectangle-4" fill="#FFF" d="M0 97l107.074 67.027L213 97v124H0z"/><path d="M110.867 143.668L216 221H4l99.635-77.24c2.12-1.643 5.07-1.68 7.232-.092z" id="Rectangle-3" fill="#E9F3F3"/></g></g></g></g></svg>
