<svg width="209" height="251" viewBox="0 0 209 251" xmlns="http://www.w3.org/2000/svg" xmlns:xlink="http://www.w3.org/1999/xlink"><defs><rect id="path-1" width="183" height="224" rx="1"/><filter x="-14.5%" y="-6%" width="129%" height="124.1%" filterUnits="objectBoundingBox" id="filter-2"><feOffset dy="14" in="SourceAlpha" result="shadowOffsetOuter1"/><feGaussianBlur stdDeviation="6.5" in="shadowOffsetOuter1" result="shadowBlurOuter1"/><feColorMatrix values="0 0 0 0 0.558415873 0 0 0 0 0.639638107 0 0 0 0 0.659943665 0 0 0 0.875651042 0" in="shadowBlurOuter1"/></filter></defs><g fill="none" fill-rule="evenodd"><g transform="translate(13)"><use fill="#000" filter="url(#filter-2)" xlink:href="#path-1"/><use fill="#FFF" xlink:href="#path-1"/><rect fill="#1B72D4" x="9" y="9" width="164" height="103" rx="1"/><path fill="#505F6E" fill-rule="nonzero" d="M20 175h135v-4H20"/><path fill="#ECF0F1" fill-rule="nonzero" d="M19 139h92v-9H19"/><path fill="#FFF" fill-rule="nonzero" d="M21 50h116v-9H21M21 103h144V75H21"/><circle fill="#354A5F" cx="36.5" cy="89.5" r="7.5"/><path fill="#FFF" fill-rule="nonzero" d="M21 55h100v-4H21"/><path fill="#FFF3E0" fill-rule="nonzero" d="M23 18h55V9H23"/><path fill="#505F6E" fill-rule="nonzero" d="M20 188h116v-4H20M20 203h144v-4H20"/><path fill="#ECF0F1" fill-rule="nonzero" d="M19 158h55v-9H19"/></g><path fill="#FFF" d="M184.766 173.656h10.382v2.625h-10.382v11.298h-2.836V176.28h-10.172v-2.624h10.172v-10.922h2.836"/><text font-family="ArialMT, Arial" font-size="14" fill="#354A5F" transform="translate(13)"><tspan x="51" y="94">18 откликов</tspan></text></g></svg>
