<svg width="223" height="251" viewBox="0 0 223 251" xmlns="http://www.w3.org/2000/svg" xmlns:xlink="http://www.w3.org/1999/xlink"><defs><rect id="b" width="183" height="224" rx="1"/><filter x="-14.5%" y="-6%" width="129%" height="124.1%" filterUnits="objectBoundingBox" id="a"><feOffset dy="14" in="SourceAlpha" result="shadowOffsetOuter1"/><feGaussianBlur stdDeviation="6.5" in="shadowOffsetOuter1" result="shadowBlurOuter1"/><feColorMatrix values="0 0 0 0 0.558415873 0 0 0 0 0.639638107 0 0 0 0 0.659943665 0 0 0 0.875651042 0" in="shadowBlurOuter1"/></filter><rect id="d" x="123" y="64" width="46" height="36" rx="1"/><filter x="-8.7%" y="-5.6%" width="117.4%" height="122.2%" filterUnits="objectBoundingBox" id="c"><feOffset dy="2" in="SourceAlpha" result="shadowOffsetOuter1"/><feGaussianBlur stdDeviation="1" in="shadowOffsetOuter1" result="shadowBlurOuter1"/><feColorMatrix values="0 0 0 0 0.558415873 0 0 0 0 0.639638107 0 0 0 0 0.659943665 0 0 0 0.430027174 0" in="shadowBlurOuter1"/></filter><linearGradient x1="-3.507%" y1="-41.367%" x2="96.679%" y2="106.51%" id="g"><stop stop-color="#1F79DF" offset="0%"/><stop stop-color="#014693" offset="100%"/></linearGradient><circle id="f" cx="170" cy="176" r="29"/><filter x="-34.5%" y="-22.4%" width="169%" height="169%" filterUnits="objectBoundingBox" id="e"><feOffset dy="7" in="SourceAlpha" result="shadowOffsetOuter1"/><feGaussianBlur stdDeviation="5.5" in="shadowOffsetOuter1" result="shadowBlurOuter1"/><feColorMatrix values="0 0 0 0 0.201336167 0 0 0 0 0.35874515 0 0 0 0 0.506191539 0 0 0 0.54186481 0" in="shadowBlurOuter1"/></filter></defs><g fill="none" fill-rule="evenodd"><g transform="translate(13)"><use fill="#000" filter="url(#a)" xlink:href="#b"/><use fill="#FFF" xlink:href="#b"/><rect fill="#1B72D4" x="9" y="9" width="164" height="73" rx="1"/><use fill="#000" filter="url(#c)" xlink:href="#d"/><use fill="#FFF" xlink:href="#d"/><path fill="#505F6E" fill-rule="nonzero" d="M20 155h135v-4H20"/><path fill="#ECF0F1" fill-rule="nonzero" d="M19 109h92v-9H19"/><path fill="#FFF" fill-rule="nonzero" d="M51 60h64v-9H51M51 65h55v-4H51"/><path fill="#FFF3E0" fill-rule="nonzero" d="M23 18h55V9H23"/><path fill="#505F6E" fill-rule="nonzero" d="M135 91h20v-4h-20M20 168h116v-4H20M20 183h144v-4H20"/><path fill="#ECF0F1" fill-rule="nonzero" d="M132 82h28v-9h-28M19 205h55v-9H19M78 205h55v-9H78M19 128h55v-9H19"/></g><g transform="translate(13)"><use fill="#000" filter="url(#e)" xlink:href="#f"/><use fill="url(#g)" xlink:href="#f"/></g><path fill="#FFF" d="M184.766 173.656h10.382v2.625h-10.382v11.298h-2.836V176.28h-10.172v-2.624h10.172v-10.922h2.836"/></g></svg>
