<svg width="247" height="248" viewBox="0 0 247 248" xmlns="http://www.w3.org/2000/svg" xmlns:xlink="http://www.w3.org/1999/xlink"><defs><rect id="jobs-path-1" width="205" height="259" rx="1"/><filter x="-12.9%" y="-5.2%" width="125.9%" height="120.8%" filterUnits="objectBoundingBox" id="jobs-filter-2"><feOffset dy="14" in="SourceAlpha" result="shadowOffsetOuter1"/><feGaussianBlur stdDeviation="6.5" in="shadowOffsetOuter1" result="shadowBlurOuter1"/><feColorMatrix values="0 0 0 0 0.558415873 0 0 0 0 0.639638107 0 0 0 0 0.659943665 0 0 0 0.875651042 0" in="shadowBlurOuter1"/></filter><rect id="jobs-path-3" width="198.071" height="254" rx="1"/><filter x="-13.4%" y="-5.3%" width="126.8%" height="121.3%" filterUnits="objectBoundingBox" id="jobs-filter-4"><feOffset dy="14" in="SourceAlpha" result="shadowOffsetOuter1"/><feGaussianBlur stdDeviation="6.5" in="shadowOffsetOuter1" result="shadowBlurOuter1"/><feComposite in="shadowBlurOuter1" in2="SourceAlpha" operator="out" result="shadowBlurOuter1"/><feColorMatrix values="0 0 0 0 0.558415873 0 0 0 0 0.639638107 0 0 0 0 0.659943665 0 0 0 0.875651042 0" in="shadowBlurOuter1"/></filter><rect id="jobs-path-5" x="133.13" y="72.571" width="49.788" height="40.821" rx="1"/><filter x="-8%" y="-4.9%" width="116.1%" height="119.6%" filterUnits="objectBoundingBox" id="jobs-filter-6"><feOffset dy="2" in="SourceAlpha" result="shadowOffsetOuter1"/><feGaussianBlur stdDeviation="1" in="shadowOffsetOuter1" result="shadowBlurOuter1"/><feColorMatrix values="0 0 0 0 0.558415873 0 0 0 0 0.639638107 0 0 0 0 0.659943665 0 0 0 0.430027174 0" in="shadowBlurOuter1"/></filter></defs><g fill="none" fill-rule="evenodd"><g transform="translate(13 23)"><use fill="#000" filter="url(#jobs-filter-2)" xlink:href="#jobs-path-1"/><use fill="#FFF" xlink:href="#jobs-path-1"/><rect fill="#1B72D4" x="10.082" y="10.406" width="183.716" height="119.094" rx="1"/><path fill="#505F6E" fill-rule="nonzero" d="M22.404 202.344h151.23v-4.625H22.404"/><path fill="#ECF0F1" fill-rule="nonzero" d="M21.284 160.72h103.06v-10.407H21.284"/><path fill="#FFF" fill-rule="nonzero" d="M23.525 57.813H153.47V47.406H23.525M23.525 119.094h161.31V86.72H23.526"/><ellipse fill="#354A5F" cx="40.888" cy="103.484" rx="8.402" ry="8.672"/><path fill="#FFF" fill-rule="nonzero" d="M23.525 63.594h112.02V58.97H23.526"/><path fill="#FFF3E0" fill-rule="nonzero" d="M25.765 20.813h61.612V10.405H25.765"/><path fill="#505F6E" fill-rule="nonzero" d="M22.404 217.375H152.35v-4.625H22.404"/><path fill="#ECF0F1" fill-rule="nonzero" d="M21.284 182.688h61.612V172.28H21.284"/></g><path fill="#FFF" d="M204.235 224.015h11.234v3.04h-11.235v13.086h-3.07v-13.084H190.16v-3.04h11.006v-12.652h3.07"/><g><g transform="translate(36)"><use fill="#000" filter="url(#jobs-filter-4)" xlink:href="#jobs-path-3"/><use fill="#FFF" xlink:href="#jobs-path-3"/><rect stroke="#ECF0F1" x=".5" y=".5" width="197.071" height="253" rx="1"/><rect fill="#1B72D4" x="9.741" y="10.205" width="177.506" height="82.777" rx="1"/><use fill="#000" filter="url(#jobs-filter-6)" xlink:href="#jobs-path-5"/><use fill="#FFF" xlink:href="#jobs-path-5"/><path fill="#505F6E" fill-rule="nonzero" d="M21.647 175.76h146.118v-4.537H21.647"/><path fill="#ECF0F1" fill-rule="nonzero" d="M20.565 123.598h99.576v-10.205H20.566"/><path fill="#FFF" fill-rule="nonzero" d="M22.73 68.036H92V57.83H22.73M22.73 73.705h59.53V69.17H22.73"/><path fill="#FFF3E0" fill-rule="nonzero" d="M24.894 20.41h59.53V10.206h-59.53"/><path fill="#505F6E" fill-rule="nonzero" d="M146.118 103.188h21.647V98.65h-21.647M21.647 190.5H147.2v-4.536H21.647M21.647 207.51h155.86v-4.537H21.646"/><path fill="#ECF0F1" fill-rule="nonzero" d="M142.87 92.982h30.307V82.777H142.87M20.565 232.455h59.53V222.25h-59.53M84.424 232.455h59.53V222.25h-59.53M20.565 145.143h59.53v-10.206h-59.53"/></g></g></g></svg>
